<svg version="1.1" id="Layer_1" xmlns="http://www.w3.org/2000/svg" xmlns:xlink="http://www.w3.org/1999/xlink" x="0px" y="0px"
	 width="100%" viewBox="0 0 1000 957" enable-background="new 0 0 1000 957" xml:space="preserve">
<path fill="#000000" opacity="1.000000" stroke="none" 
	d="
M1.000000,352.000000 
	C1.000000,236.000015 1.019505,120.500008 0.904748,5.000136 
	C0.901347,1.576272 1.576463,0.904963 4.999986,0.906007 
	C335.666565,1.006849 666.333191,1.006846 996.999817,0.906037 
	C1000.422852,0.904993 1001.095154,1.576063 1001.094055,4.999868 
	C1000.992859,321.333130 1000.992859,637.666382 1001.093994,953.999695 
	C1001.095093,957.422424 1000.424316,958.095032 997.000305,958.093994 
	C666.333679,957.993164 335.667023,957.993164 5.000423,958.093933 
	C1.577808,958.094971 0.903706,957.424744 0.905512,954.000305 
	C1.011292,753.500244 1.000000,553.000122 1.000000,352.000000 
z"/>
<path fill="#273E91" opacity="1.000000" stroke="none" 
	d="
M194.798279,130.193970 
	C201.550720,123.366104 209.052414,117.842354 216.415237,112.211128 
	C226.995346,104.119270 237.501038,95.740952 248.942810,89.025734 
	C257.822571,83.814171 266.133026,77.566238 275.746033,73.483452 
	C282.088013,70.789909 287.789764,66.628609 294.001465,63.579407 
	C303.753113,58.792519 313.499237,53.896648 323.592743,49.923553 
	C346.681000,40.835354 370.146088,32.794983 394.314636,26.988852 
	C412.701965,22.571562 431.373108,19.761703 450.052582,16.916307 
	C477.716217,12.702371 505.574432,12.133321 533.382507,13.245152 
	C554.230652,14.078709 574.995728,16.712086 595.624390,20.573105 
	C616.502930,24.480886 637.038879,29.264605 657.406494,35.355801 
	C669.296509,38.911671 680.496765,43.942764 692.141113,47.897530 
	C702.000000,51.245907 710.927002,56.460354 720.404480,60.431137 
	C736.677429,67.249001 751.323608,76.744316 766.515137,85.426064 
	C782.939209,94.812164 797.945923,106.139023 812.780518,117.650009 
	C823.377014,125.872452 833.221252,135.126617 843.146973,144.228806 
	C849.474060,150.030975 855.318909,156.353256 861.277954,162.405487 
	C867.609985,168.836563 874.089966,175.481995 879.224121,183.165573 
	C881.464905,186.518997 884.465942,189.427536 887.159851,192.482849 
	C892.843445,198.929108 898.162964,205.869736 902.702942,212.899124 
	C908.969482,222.601715 915.464417,232.259796 921.345093,242.277679 
	C927.560608,252.865799 932.970154,263.861938 939.010742,274.525940 
	C942.459045,280.613647 944.402649,287.532837 947.470337,293.861176 
	C954.374756,308.104187 959.321167,323.133331 963.841064,338.161865 
	C969.267029,356.203125 973.842896,374.555511 977.122437,393.194489 
	C979.302185,405.583099 979.585449,418.114410 981.087830,430.533813 
	C983.268250,448.558929 983.552856,466.653717 982.807739,484.699890 
	C982.224060,498.836304 980.505859,512.967834 979.340088,527.081665 
	C978.094910,542.156372 974.736389,556.660889 971.299561,571.200012 
	C966.922058,589.718323 961.593262,607.922363 954.602722,625.739258 
	C951.006958,634.903870 946.478638,643.664612 943.260742,652.884033 
	C939.425476,663.872620 932.773193,673.349304 928.344055,683.976929 
	C926.406067,688.627258 923.185181,692.756897 920.437561,697.053040 
	C914.535889,706.280823 908.563354,715.463379 902.345825,724.869263 
	C901.804138,725.244202 901.556885,725.440125 901.168213,725.834717 
	C901.006287,726.007690 901.000000,726.000000 901.004150,726.004028 
	C893.006104,736.177368 885.730286,746.902039 877.235474,756.698730 
	C850.485901,787.548096 820.851013,815.179565 787.176270,838.411621 
	C732.673218,876.012939 673.005981,901.510681 608.125793,914.556946 
	C581.990967,919.812317 555.546448,922.629944 528.827148,923.718018 
	C468.159698,926.188538 409.246704,917.304688 351.967865,897.683044 
	C292.305847,877.244812 238.724182,846.101624 191.469803,804.232727 
	C152.719513,769.898743 120.351074,730.351196 95.059967,685.153992 
	C67.332245,635.602356 49.525852,582.709229 42.243595,526.306763 
	C39.144257,502.301819 37.651810,478.202850 38.592541,454.059387 
	C39.945061,419.347595 44.999073,385.143433 54.314407,351.581757 
	C66.672401,307.057831 85.505562,265.493378 110.705894,226.833344 
	C125.467979,204.186737 142.177444,183.060974 160.739517,163.325943 
	C169.893738,153.593246 179.525177,144.476700 189.853058,135.470520 
	C190.960434,134.286621 191.743866,133.321182 192.807587,132.213455 
	C193.554489,131.477585 194.352295,131.196426 194.798279,130.193970 
z"/>
<path fill="#181C4C" opacity="1.000000" stroke="none" 
	d="
M189.815094,135.174500 
	C187.796875,140.011688 183.542938,143.140167 179.746826,146.509048 
	C166.133850,158.589905 154.288635,172.307129 142.620010,186.159729 
	C125.978317,205.916229 111.501297,227.219513 98.605446,249.609131 
	C86.449028,270.714996 76.239494,292.704590 67.653931,315.495941 
	C57.360580,342.820770 50.042793,370.931366 45.418976,399.705750 
	C43.078621,414.270020 41.607296,428.970459 40.807659,443.753693 
	C40.213692,454.734680 39.852718,465.697723 40.074638,476.667267 
	C40.878185,516.387634 46.662109,555.358521 57.980133,593.486938 
	C65.768890,619.725952 75.760849,645.099365 88.317650,669.391357 
	C104.255684,700.224548 123.316467,729.017456 145.880890,755.473450 
	C180.420578,795.970032 220.505493,829.821350 266.443420,856.710144 
	C308.836029,881.523743 353.980438,899.447815 401.863434,910.409607 
	C421.776489,914.968323 441.929016,918.053345 462.264740,920.095947 
	C480.469940,921.924500 498.715790,923.301636 516.982971,922.806580 
	C541.200928,922.150269 565.314697,920.117432 589.309631,916.296875 
	C616.820312,911.916443 643.669495,905.179321 669.953308,896.110840 
	C721.220703,878.422546 768.030396,852.624207 810.654236,819.050842 
	C830.608887,803.333313 848.635620,785.621155 865.996155,767.229004 
	C877.492676,755.049255 887.823486,741.795410 897.794922,728.308044 
	C898.496338,727.359375 899.055359,726.340332 900.658508,726.025269 
	C900.726990,726.774353 900.597168,727.648132 900.141541,728.290833 
	C893.765259,737.284302 888.048950,746.705994 881.282349,755.468994 
	C873.026001,766.161316 864.463074,776.524170 855.546936,786.675354 
	C847.696106,795.613525 838.981995,803.593872 830.764160,812.097778 
	C819.118103,824.149231 806.370117,834.873962 793.137634,844.931396 
	C785.090637,851.047546 776.889709,857.122070 768.449097,862.821533 
	C758.546265,869.508240 748.393921,875.800903 738.115784,881.723694 
	C717.767700,893.449463 696.793701,904.077087 674.578735,912.015991 
	C666.619446,914.860474 658.941040,918.554321 650.882141,921.043579 
	C635.084045,925.923462 619.352295,931.697327 603.142822,934.387024 
	C584.598877,937.463928 566.130798,941.185425 547.364624,943.253967 
	C523.004822,945.939087 498.628387,946.667725 474.255859,945.794922 
	C452.969482,945.032715 431.705872,942.846985 410.780090,938.407166 
	C399.638794,936.043274 388.200714,935.254822 377.220245,932.044922 
	C368.174530,929.400574 359.222290,926.347656 350.054565,924.228821 
	C333.021973,920.292236 317.132294,913.119141 301.138794,906.564026 
	C287.471436,900.962402 274.104919,894.326050 261.104004,887.001709 
	C249.263245,880.331055 237.708893,873.259705 226.193344,866.087219 
	C218.212204,861.116150 210.671326,855.547180 203.194244,849.832825 
	C192.574707,841.716919 182.244263,833.332214 172.120178,824.585876 
	C165.218689,818.623596 158.424530,812.421692 152.053436,806.062622 
	C140.486847,794.518066 129.256134,782.505005 119.247871,769.481262 
	C113.030159,761.390137 106.415436,753.572571 100.660652,745.165527 
	C93.952110,735.365112 87.880951,725.104065 81.349365,715.193481 
	C75.207024,705.873535 70.451538,695.827698 65.437706,686.041931 
	C58.534748,672.568848 51.933674,658.759155 47.490788,644.117554 
	C46.098358,639.528809 43.895237,635.191406 42.378876,630.633972 
	C34.006062,605.469177 27.508291,579.769958 23.444757,553.612366 
	C21.991722,544.258911 21.611647,534.515625 20.841236,524.950745 
	C19.573553,509.212006 18.474716,493.475281 19.098150,477.714050 
	C19.712378,462.185608 21.512480,446.698395 22.574051,431.217346 
	C23.891565,412.003754 28.886225,393.751617 32.948856,375.194489 
	C36.322231,359.785736 42.059143,345.169891 47.047443,330.274170 
	C51.740322,316.260651 58.152992,303.076202 64.337212,289.817230 
	C69.915413,277.857544 76.441956,266.287567 83.400291,254.962845 
	C92.403366,240.310379 102.048828,226.101852 112.367233,212.426468 
	C119.502808,202.969421 127.230217,193.862610 135.269562,185.054962 
	C143.867218,175.635666 152.805054,166.565796 161.974976,157.744659 
	C169.728989,150.285583 178.115158,143.481110 186.285172,136.460953 
	C187.117401,135.745865 188.386734,135.539429 189.815094,135.174500 
z"/>
<path fill="#1A2257" opacity="1.000000" stroke="none" 
	d="
M194.693451,130.083405 
	C194.907425,130.849075 194.838898,131.731201 193.411499,132.029846 
	C193.533997,131.450470 193.980103,130.829773 194.693451,130.083405 
z"/>
<path fill="#181C4C" opacity="1.000000" stroke="none" 
	d="
M901.253906,725.947510 
	C901.140015,725.700623 901.345215,725.452759 901.846802,725.169006 
	C901.881653,725.345093 901.691528,725.616211 901.253906,725.947510 
z"/>
<path fill="#FEFEFE" opacity="1.000000" stroke="none" 
	d="
M59.254326,516.561401 
	C46.631966,392.838196 80.665588,283.393951 161.496292,189.417984 
	C232.610138,106.739044 323.236267,56.395149 430.566467,38.505943 
	C561.574646,16.670221 682.300110,43.976578 789.449951,123.311745 
	C876.430237,187.713150 933.419250,273.162048 956.003540,379.423615 
	C981.731262,500.475098 958.697998,612.968506 887.366943,713.996765 
	C814.849365,816.705688 714.713867,878.593567 591.135864,899.227112 
	C451.795227,922.492371 325.030304,890.407166 215.064255,800.638916 
	C130.593506,731.683044 79.338120,642.376831 61.321659,534.474792 
	C60.754406,531.077515 59.633469,527.660645 60.640999,523.902466 
	C63.217171,524.221680 64.048759,526.142090 65.095802,527.812134 
	C75.000664,543.611267 84.913490,559.405518 94.752289,575.245850 
	C98.623856,581.479004 98.635010,581.522339 105.403801,579.051697 
	C111.719757,576.746277 113.478455,577.272522 116.377113,583.560303 
	C126.063072,604.570984 135.645874,625.629456 145.235046,646.684753 
	C155.031738,668.195679 165.001389,689.627258 174.773544,711.149780 
	C177.556931,717.279907 177.952698,717.410828 184.275055,715.134705 
	C201.507690,708.930725 219.022614,703.547546 236.200089,697.187866 
	C240.130859,695.732605 243.666412,693.546814 247.442047,691.019043 
	C252.016891,688.854309 252.822388,685.626587 251.493088,681.367004 
	C249.271591,674.248413 247.654755,666.963196 245.852417,659.730774 
	C245.337723,657.665527 244.535461,655.585266 245.696243,653.110413 
	C249.551529,652.626709 251.529846,655.476990 253.979904,657.290039 
	C265.113800,665.529297 277.236847,671.206116 291.368164,670.272034 
	C307.684509,669.193604 323.185455,665.091614 336.841553,655.512878 
	C341.306061,652.381409 343.081909,653.141785 344.135254,658.509827 
	C344.840149,662.101929 344.679993,665.794800 345.334808,669.413391 
	C345.841919,672.215698 347.090973,673.484375 350.035583,673.154419 
	C364.740936,671.506470 379.482330,670.063110 394.113617,667.927795 
	C401.028107,666.918640 406.753662,662.202026 413.114014,658.491821 
	C415.629974,656.148499 415.169983,653.401184 415.251556,650.818848 
	C415.515839,642.456055 414.774414,634.075134 415.827454,625.343018 
	C417.387573,622.418823 419.303619,623.475769 421.104523,624.337036 
	C442.822357,634.723572 464.540588,645.111206 486.207855,655.600891 
	C496.968231,660.810303 507.962250,665.545227 518.506409,671.184204 
	C522.119873,673.116760 525.170898,673.030518 527.942688,670.104126 
	C530.143921,667.780029 533.776917,666.708923 534.287109,662.515381 
	C534.395752,648.251465 533.542786,634.389526 534.863525,620.140869 
	C535.916321,618.025330 537.560486,617.628296 539.237244,617.517212 
	C547.010681,617.002319 554.125183,614.113464 561.326599,611.516907 
	C563.165283,610.853943 565.144531,609.513855 566.965088,611.058899 
	C568.875000,612.679749 568.256226,615.029846 567.837708,617.152100 
	C567.225647,620.256165 566.357239,623.302551 565.623901,626.379822 
	C564.934875,629.270752 565.960510,630.824524 568.910095,631.252625 
	C589.340271,634.217896 609.745911,637.352539 630.202576,640.134338 
	C632.783813,640.485352 635.079102,639.660095 637.377502,638.515991 
	C642.544250,635.944031 644.421387,636.523926 647.772705,641.379211 
	C651.369385,646.590027 651.369385,646.590027 657.134827,644.571228 
	C660.972473,643.227478 662.576294,644.089172 663.594910,648.227600 
	C664.390991,651.462036 664.834045,654.773071 665.346802,658.060303 
	C665.793335,660.923157 667.256653,662.516968 670.104431,662.985779 
	C691.461426,666.501404 712.767944,670.316284 734.131409,673.794617 
	C736.587158,674.194397 738.759460,673.404846 740.797119,672.220947 
	C744.102295,670.300476 747.523010,668.584900 751.025024,666.271362 
	C752.694153,663.640076 751.601562,661.252441 751.387878,658.886292 
	C751.214783,656.969788 750.594788,655.056091 751.721436,652.841614 
	C757.571655,650.298279 763.466125,651.612488 769.212097,651.175842 
	C771.400635,651.009521 772.135681,653.068054 772.408691,654.990295 
	C772.808105,657.801575 772.830139,660.657104 772.597412,663.457764 
	C772.223694,667.956116 774.336121,669.736633 778.559814,670.079163 
	C783.050842,670.443359 787.536499,670.250854 792.023193,670.357361 
	C799.659485,670.538452 807.312683,669.889221 814.927368,671.226990 
	C818.181946,671.798767 820.449341,673.236450 821.870361,676.183289 
	C831.040222,695.199280 830.071533,691.384521 848.428772,697.893860 
	C855.639221,700.450500 862.971619,702.647583 870.277771,704.921875 
	C873.914490,706.053894 877.116150,705.949707 880.460815,703.317749 
	C882.819519,701.607727 883.399414,699.280823 884.163391,697.102051 
	C905.167175,637.200684 926.605225,577.452209 947.385986,517.472290 
	C949.618835,511.027496 949.445557,510.520203 942.843811,509.125366 
	C923.118652,504.957916 903.454529,500.510345 883.385010,496.247253 
	C881.623901,495.883118 880.635010,494.187775 878.603271,495.069519 
	C875.974976,496.086792 873.767944,497.499634 870.759888,496.474945 
	C868.324341,491.555878 864.352844,489.997253 859.542664,489.028320 
	C837.403992,484.568878 815.266479,480.101288 793.130066,475.629395 
	C791.370789,475.273956 789.596619,474.597687 787.359192,475.331238 
	C772.563110,482.610992 774.938171,479.607056 774.703918,495.090424 
	C774.613342,501.079376 774.722046,507.070770 774.669434,513.060791 
	C774.645996,515.726685 774.640015,518.412170 772.706970,521.045532 
	C771.005127,522.402466 769.329773,522.535095 767.673096,522.696472 
	C757.246155,523.712219 747.514343,526.952332 738.238525,531.740356 
	C732.099548,534.909180 730.362549,534.110901 729.216675,527.194153 
	C725.867920,506.979950 722.207764,486.819244 718.903381,466.597687 
	C717.780396,459.725983 717.693237,459.735168 710.572998,459.653931 
	C707.751221,459.621735 704.901672,459.922424 701.755371,458.943604 
	C697.060059,450.486359 690.382019,444.882782 681.954590,440.943054 
	C678.376465,439.270325 678.446472,436.865784 682.012634,433.960571 
	C689.784607,427.629028 695.208496,419.564789 700.360474,411.109039 
	C707.799133,398.900208 710.243530,385.434753 711.455688,371.574432 
	C712.891541,355.156891 708.123901,339.915497 702.230469,324.947205 
	C699.352661,317.638367 699.701294,316.670959 707.520325,314.778931 
	C718.593811,312.099274 728.979431,307.480164 739.395813,303.084259 
	C757.198120,295.571350 775.590942,289.507812 792.985596,280.998779 
	C814.210938,270.615814 833.954407,258.026703 851.279175,241.890869 
	C855.651489,237.818588 859.427979,233.071213 862.502930,227.884995 
	C866.206726,221.638184 864.645142,217.085815 857.928101,214.345413 
	C853.231506,212.429306 848.185303,211.810165 843.235596,211.680374 
	C820.902283,211.094742 798.598450,211.256271 776.609375,216.130112 
	C755.142944,220.888107 734.954956,228.992355 715.537415,239.158127 
	C699.270874,247.674225 683.936646,257.699432 668.786743,268.027130 
	C664.445312,270.986633 662.659851,270.765045 658.625183,267.246887 
	C637.054932,248.437805 611.716370,237.766327 583.770264,232.934921 
	C577.033875,231.770309 570.115723,232.349396 563.309082,232.628998 
	C557.696228,232.859573 554.609192,230.688843 552.025818,225.710541 
	C537.912537,198.514069 524.521057,170.895508 507.163239,145.513382 
	C496.108917,129.348785 483.543945,114.521683 468.325226,102.069649 
	C458.541992,94.064957 447.820709,87.760445 435.529083,84.525124 
	C423.863190,81.454506 417.935425,86.056839 417.540466,98.124161 
	C417.029297,113.741364 422.792786,127.837250 428.305389,141.958725 
	C431.823853,150.971848 436.182434,159.600662 441.335022,167.813721 
	C442.570160,169.782516 443.847809,171.771057 443.810059,174.624695 
	C443.553650,175.524826 443.239990,175.939896 442.425415,176.385818 
	C439.527374,176.390396 438.378998,174.378326 437.061218,172.731430 
	C424.876984,157.504074 411.403412,143.464279 397.902863,129.415741 
	C386.029114,117.060036 374.387451,104.475266 362.473206,92.152824 
	C361.432007,91.075943 360.417847,89.957649 359.235901,89.036690 
	C356.441467,86.859291 355.234680,87.333328 354.675446,90.831017 
	C354.438629,92.312096 354.534393,93.822601 354.534332,95.320831 
	C354.531677,147.441513 354.603577,199.562454 354.429565,251.682541 
	C354.410828,257.292328 356.318909,260.946075 360.743866,264.257019 
	C377.407104,276.725159 393.764008,289.599640 410.255646,302.296021 
	C415.887207,306.631622 416.198303,308.384735 412.261169,314.319885 
	C403.241699,327.916443 394.173950,341.480560 384.919403,354.919983 
	C380.527191,361.298370 380.978577,362.559631 386.877686,367.782013 
	C398.230560,377.832458 408.557495,388.944305 419.215149,399.708557 
	C422.396240,402.921478 422.115234,404.585205 418.146973,407.296051 
	C412.439728,411.194824 407.350433,415.559204 403.883606,421.695557 
	C398.456635,431.301483 397.878204,440.908417 403.276093,450.691956 
	C403.759399,451.567993 404.207550,452.459869 404.467163,453.840759 
	C403.472473,457.812836 400.153412,458.044220 397.406433,458.922424 
	C377.289398,465.353668 357.096008,471.545166 337.031616,478.142334 
	C334.502808,478.973846 331.983856,479.831818 329.176636,481.070007 
	C314.411407,487.746307 314.773712,485.928772 316.259766,502.067932 
	C316.810425,508.048553 316.304810,514.030029 316.809204,519.988525 
	C317.284393,525.601990 318.007538,526.100952 323.621582,525.171875 
	C330.435913,524.044189 332.162323,525.921997 330.785278,533.534424 
	C328.913910,535.693848 326.660370,535.614197 324.531006,535.539734 
	C310.505188,535.049011 297.520416,538.693787 285.216644,545.191772 
	C283.632996,546.028137 281.894592,547.344299 280.118652,546.053589 
	C278.408447,544.810730 278.856903,542.748230 279.090515,540.940491 
	C283.869232,503.959351 259.832733,481.523834 233.543137,472.085632 
	C212.135880,464.400208 190.182632,464.095428 168.026398,468.329895 
	C142.198074,473.266144 117.293434,480.891418 94.159302,493.673370 
	C87.009544,497.623749 80.073746,501.907837 73.366867,507.251709 
	C69.910805,509.509888 67.100212,511.966858 64.216698,514.328918 
	C62.846138,515.451599 61.612835,516.829407 59.254326,516.561401 
z"/>
<path fill="#1B1F4E" opacity="1.000000" stroke="none" 
	d="
M58.792625,516.713562 
	C63.617599,514.067322 66.871193,509.814636 71.547089,506.896851 
	C74.754387,508.273590 75.895531,511.178955 77.413185,513.697815 
	C87.635811,530.664246 97.997520,547.545715 108.304092,564.460815 
	C111.402618,569.546143 111.877258,569.688293 117.498199,567.405945 
	C127.855042,563.200684 127.705841,563.270569 132.353012,573.198669 
	C144.980637,600.175903 157.475769,627.215027 170.190140,654.151978 
	C177.648224,669.952820 184.853592,685.872070 192.311081,701.674683 
	C194.139359,705.548828 196.084213,706.377075 200.034698,705.000610 
	C213.709808,700.235962 227.473175,695.722595 241.241486,691.231567 
	C243.465103,690.506348 245.890182,688.863342 248.153351,691.656494 
	C243.727417,695.355469 238.954727,697.905579 233.680923,699.670532 
	C216.961853,705.265930 200.302536,711.039734 183.616455,716.733948 
	C176.867737,719.036987 176.850037,719.030640 173.978714,712.750488 
	C154.266190,669.635132 134.502563,626.542847 114.940247,583.359436 
	C112.996475,579.068604 111.412064,577.658081 106.664818,579.934692 
	C98.465759,583.866638 98.320473,583.507568 93.605484,575.977234 
	C82.831741,558.770264 72.035667,541.577332 61.126457,524.036377 
	C61.181892,521.134399 56.535686,520.252563 58.792625,516.713562 
z"/>
<path fill="#283E8F" opacity="1.000000" stroke="none" 
	d="
M248.486420,691.986877 
	C246.195007,689.972534 244.319733,691.796570 242.631149,692.345093 
	C227.750244,697.178650 212.898163,702.104248 198.092606,707.163696 
	C195.036011,708.208191 193.428986,707.984314 191.935287,704.668762 
	C184.416489,687.979492 176.610046,671.419678 168.890213,654.821045 
	C155.695908,626.451721 142.402420,598.127869 129.384750,569.677734 
	C127.403862,565.348511 125.563530,565.026062 121.570137,567.095459 
	C111.416702,572.356873 111.259712,572.211182 105.624771,562.970642 
	C94.370682,544.515686 83.191658,526.014954 71.930588,507.171448 
	C72.700195,506.015839 73.429680,505.090912 74.354660,504.446716 
	C111.471191,478.597137 152.831894,465.365814 197.871445,464.270355 
	C216.790817,463.810211 234.989822,468.454834 251.090637,478.909271 
	C273.688843,493.582550 284.173828,514.250610 280.540771,541.423889 
	C280.386444,542.578064 280.189484,543.727539 280.075378,544.885437 
	C280.048248,545.160583 280.275238,545.460876 280.555145,546.194641 
	C295.462646,537.021667 311.642548,532.857727 329.552826,533.907959 
	C333.226929,531.633118 336.484619,533.358215 339.634064,533.999023 
	C343.060364,534.696289 344.066437,533.782104 343.734100,530.229431 
	C342.929626,521.630127 343.077454,521.616272 334.666016,523.354065 
	C330.284821,524.259277 328.641876,523.475586 328.537415,519.379272 
	C328.240387,507.735016 326.678070,496.132782 327.363586,484.458527 
	C327.452148,482.949738 327.567780,481.458557 328.701660,479.826843 
	C346.769104,473.623383 364.714355,467.832214 382.639771,461.980377 
	C389.700836,459.675201 396.717682,457.234528 403.940948,454.553223 
	C408.272430,452.522522 409.071564,453.023529 410.299988,458.525146 
	C408.977081,464.783142 409.512146,470.670532 409.691132,477.361755 
	C412.648376,473.729706 414.391785,470.384430 415.986877,466.546204 
	C417.263397,464.476746 418.829315,463.034363 419.927002,460.826172 
	C421.881775,457.953369 423.092041,455.003021 425.665710,452.566528 
	C428.550323,451.469666 430.269958,452.993164 432.272766,454.718384 
	C439.797760,461.346100 447.199219,467.560059 454.956055,473.885925 
	C455.428406,474.214874 455.613708,474.351227 456.319275,474.934875 
	C459.030182,477.986725 461.811859,479.915833 464.694214,482.253540 
	C468.027893,485.518494 471.577850,488.007416 474.719421,490.973206 
	C476.993103,493.119690 479.208496,493.212463 481.689026,490.918549 
	C486.206726,486.740784 491.144470,483.059784 496.505096,480.013733 
	C499.550598,478.283234 500.250641,476.851471 497.144745,474.210022 
	C492.061432,469.886810 492.313141,468.829529 496.718018,463.770203 
	C513.062561,444.997345 529.867126,426.629456 546.028992,407.696869 
	C547.433411,406.051727 549.071228,404.632721 550.643066,402.667419 
	C550.992249,402.183411 551.148621,402.000549 551.582275,401.582703 
	C552.475220,400.939423 553.147156,400.671326 554.235962,400.548981 
	C556.857544,401.245728 557.890015,403.250183 559.164795,404.938690 
	C565.648193,413.526215 571.906067,422.281067 578.548706,431.186157 
	C580.299500,434.052673 582.192566,436.360718 584.547485,438.763000 
	C585.678955,440.629333 586.762329,442.098907 587.755859,443.626923 
	C590.684204,448.130737 590.373474,449.806549 585.623474,452.250244 
	C576.184326,457.106354 566.661072,461.799500 556.840271,466.707825 
	C553.705994,468.142700 550.989197,469.609741 547.864014,471.024780 
	C546.998718,471.422394 545.910278,471.728821 546.052612,472.027832 
	C546.621338,473.222412 547.942261,472.465057 549.250977,472.835052 
	C560.335693,474.845459 570.584351,478.074738 579.999573,484.519196 
	C583.279968,486.829620 585.901978,489.411255 589.427246,491.369965 
	C592.110962,493.334656 593.871338,495.862732 597.112427,497.572998 
	C599.748779,488.107361 600.253235,478.501953 602.504639,468.855865 
	C605.006592,465.976227 608.090332,466.256836 611.040100,466.206665 
	C623.440979,465.995544 635.849243,466.545868 648.686584,465.851624 
	C651.074646,466.157959 652.986511,466.470703 655.007629,466.389252 
	C662.998779,466.067047 663.001709,466.139130 665.733643,458.536194 
	C667.749084,456.716492 669.852722,456.312531 672.009277,456.278625 
	C678.745056,456.172607 685.484558,455.911499 692.698242,456.435669 
	C695.833008,456.022278 698.442505,455.909973 701.243530,457.741089 
	C706.132446,458.956940 710.632751,458.428040 715.073975,458.304871 
	C718.493408,458.209991 719.566956,459.472809 720.087891,462.711487 
	C723.619202,484.666870 727.350891,506.590057 731.036499,528.520569 
	C731.279175,529.964722 731.675842,531.383057 732.101440,533.256287 
	C744.489624,526.253113 757.121277,521.062256 771.753418,520.985413 
	C774.442200,518.847351 777.133850,519.452576 779.748718,519.758545 
	C784.871582,520.357971 789.818481,521.741394 794.762024,523.156921 
	C795.777588,523.447754 797.252991,523.909790 797.517456,522.155151 
	C797.689392,521.014404 796.728394,520.417297 795.738281,520.086914 
	C794.479675,519.666992 793.145142,519.544373 791.874146,519.158386 
	C789.409363,518.409973 787.833862,516.804565 787.593628,514.228333 
	C786.362732,501.027100 785.692749,487.808838 786.758423,474.145721 
	C788.146118,472.336853 789.609131,473.248077 791.003052,473.530457 
	C814.994629,478.391113 838.950378,483.438721 862.997131,488.008057 
	C868.099548,488.977600 870.739380,490.976959 870.917786,496.554077 
	C873.946899,499.878937 873.609314,503.925201 874.649109,507.488373 
	C875.155457,509.223846 875.270508,511.055756 876.117188,512.718140 
	C876.685181,512.092590 876.629211,511.403656 876.798950,510.453583 
	C876.883362,509.945312 876.924622,509.740753 877.045166,509.229187 
	C877.485352,507.903900 877.735352,506.858582 877.944336,505.455048 
	C878.054993,504.897125 878.107971,504.673431 878.263184,504.116943 
	C879.344788,500.849579 879.290771,497.561707 881.683044,494.819214 
	C899.218994,498.271515 916.441223,501.902679 933.660767,505.546234 
	C938.053406,506.475677 942.408264,507.628448 946.834839,508.340240 
	C950.825745,508.981934 951.859314,510.164337 950.297424,514.456604 
	C941.314209,539.143250 932.719360,563.971130 923.978210,588.746033 
	C911.087463,625.282043 898.188232,661.815063 885.274719,698.343079 
	C884.619690,700.195862 884.377075,702.270996 882.380127,703.736206 
	C880.577820,703.547119 879.111084,703.303223 877.679688,702.819824 
	C864.760559,698.456726 852.035461,693.539612 839.004822,689.485779 
	C832.596558,687.492188 831.456055,685.641235 831.387390,678.919861 
	C831.261597,666.615234 832.261597,667.995117 819.977905,667.527893 
	C811.019958,667.187195 802.091980,666.058167 793.154419,665.257019 
	C786.327271,664.645081 784.909241,662.680481 785.534973,655.770508 
	C785.894714,651.798218 786.292114,647.825989 786.702820,643.857483 
	C786.980469,641.174500 785.933289,640.565735 783.557678,641.336975 
	C774.675964,644.220581 765.625671,646.427551 756.350586,647.525513 
	C753.148865,647.904480 752.963318,650.170105 752.239441,652.768860 
	C752.131104,657.650085 754.145508,661.932495 753.300049,666.671509 
	C747.230103,667.814880 741.703247,666.216553 736.149414,665.408508 
	C720.333130,663.107666 704.580688,660.361633 688.747498,658.190674 
	C683.283020,657.441406 680.423706,655.048218 679.611145,649.557251 
	C678.980042,645.292725 677.631897,641.134766 676.533447,636.947327 
	C676.248230,635.859924 676.215454,634.338501 674.860413,634.132935 
	C673.603088,633.942200 672.963135,635.273438 672.211060,636.134399 
	C671.882690,636.510193 671.600342,636.925110 671.285950,637.313110 
	C666.493896,643.227417 664.450195,643.068787 660.312134,636.405640 
	C657.097656,631.229614 654.105408,625.912231 650.425171,620.210144 
	C649.374939,623.263367 649.224915,625.740601 648.812683,628.147461 
	C647.670471,634.816711 646.225159,635.907104 639.361633,634.852173 
	C628.829712,633.233276 618.316162,631.479004 607.746704,630.128418 
	C600.147705,629.157349 592.585449,627.960388 585.017212,626.799072 
	C579.177063,625.902893 578.012024,624.359070 578.684631,618.421936 
	C579.228027,613.625549 580.095276,608.869324 580.793762,604.092346 
	C581.457031,599.555847 580.540771,598.862671 576.281738,600.729126 
	C565.095520,605.631470 553.676941,609.680054 541.382324,610.627197 
	C538.998779,610.810791 537.697144,611.820618 537.634216,614.303406 
	C537.591980,615.973206 537.397400,617.635925 536.271118,619.431885 
	C536.189331,634.282776 536.168457,648.742554 536.007080,663.660278 
	C533.674500,665.721863 531.711792,664.437805 529.800720,663.534485 
	C497.764343,648.391357 465.577087,633.570496 433.537354,618.434875 
	C430.075806,616.799683 426.516998,615.392151 423.058167,613.746216 
	C419.221130,611.920471 418.711090,612.363953 418.494110,616.848633 
	C418.383270,619.139343 418.928833,621.538879 417.308350,623.964722 
	C417.112030,634.439636 417.066010,644.586121 417.102142,654.732300 
	C417.109558,656.812622 417.193207,658.779053 414.346436,659.650635 
	C397.936554,662.719604 381.762085,664.789856 365.611084,667.016235 
	C358.045166,668.059326 356.868683,667.110168 356.387604,659.469055 
	C356.167847,655.978760 355.403046,652.548279 355.353790,649.036804 
	C355.309601,645.886292 353.641418,645.727112 351.510895,647.289062 
	C347.058258,650.553284 342.070160,652.874634 337.159424,655.249207 
	C319.232025,663.918091 300.488800,667.046143 281.505859,659.799438 
	C260.279541,651.696289 248.269638,635.692200 245.365234,613.039185 
	C245.301865,612.544861 245.385727,612.007751 245.220520,611.552612 
	C244.546631,609.695984 245.854279,606.864929 243.043777,606.114563 
	C241.433975,605.684753 237.491455,610.330872 237.394806,612.442505 
	C237.317841,614.123840 237.867981,615.726929 238.226227,617.351440 
	C240.414261,627.273254 243.626541,636.935730 245.704529,646.884460 
	C246.076538,648.665527 246.721313,650.421753 246.191254,652.644897 
	C248.341080,662.519226 250.287170,672.163269 253.161621,681.522217 
	C254.778412,686.786316 254.130295,690.053223 248.486420,691.986877 
z"/>
<path fill="#292523" opacity="1.000000" stroke="none" 
	d="
M420.997742,460.625763 
	C420.536926,463.095642 419.449341,464.845673 417.331299,466.262268 
	C413.114197,466.424408 411.023895,463.754120 408.940491,460.670776 
	C408.646332,457.568909 410.060547,453.729309 404.517456,454.217957 
	C397.191589,445.210907 396.470978,435.362610 400.522064,425.009338 
	C404.429230,415.023743 412.197235,408.682587 419.337463,405.089020 
	C408.384247,393.183258 397.383057,380.903107 386.008301,368.979309 
	C378.909821,361.538239 378.656128,361.779205 384.481903,353.114838 
	C393.774689,339.294220 402.939728,325.384644 412.454651,311.718628 
	C414.755493,308.414001 414.147125,307.000519 411.197083,304.758026 
	C392.897552,290.847473 374.792755,276.680908 356.512848,262.744202 
	C353.697418,260.597687 352.628601,258.283844 352.634674,254.770660 
	C352.728271,200.460144 352.696747,146.149414 352.711823,91.838737 
	C352.712433,89.565826 352.190704,87.035706 354.939850,85.741814 
	C357.499939,84.536896 359.017456,86.221107 360.497375,87.825424 
	C387.482758,117.079170 416.435333,144.523804 441.591064,175.904602 
	C444.290375,177.211075 445.433868,179.493530 446.985291,181.809006 
	C447.314056,182.328125 447.636414,182.384903 447.798248,182.548782 
	C448.263641,183.020126 448.287415,181.948776 447.969269,182.534622 
	C447.967712,182.537476 447.831055,182.496445 447.351013,182.196259 
	C445.877655,179.753448 443.955505,177.882797 443.435974,174.905731 
	C432.692810,156.440384 423.607697,137.597870 418.382599,117.069130 
	C416.650177,110.262604 415.174805,103.435463 415.878876,96.347275 
	C417.026306,84.796120 422.957001,80.418396 434.232819,82.781281 
	C447.294647,85.518417 458.357605,92.226143 468.546387,100.464539 
	C489.700043,117.568832 505.810822,138.890839 519.513733,162.169342 
	C532.023926,183.421692 543.415161,205.278564 554.331604,227.379272 
	C555.917664,230.590347 557.688110,231.477600 561.206421,231.263428 
	C599.414734,228.937698 631.840881,242.930069 660.408264,267.186615 
	C663.226074,269.579224 664.627258,269.472351 667.366211,267.519318 
	C695.425659,247.511490 724.983521,230.296906 757.990845,219.634201 
	C788.325867,209.834763 819.460022,208.659698 850.912415,211.105865 
	C854.393311,211.376587 857.814575,212.277115 860.946655,213.940170 
	C866.200439,216.729874 867.696167,221.208054 864.915710,226.513870 
	C861.875427,232.315369 857.741577,237.349762 853.048279,241.882889 
	C830.654785,263.512115 804.159485,278.598755 775.523193,290.212036 
	C758.398438,297.156860 741.215454,303.958252 724.067505,310.845978 
	C717.719849,313.395599 711.276855,315.690582 704.511536,316.755829 
	C701.284912,317.263855 700.814636,318.270782 702.124939,321.214417 
	C706.737183,331.575562 710.404236,342.293121 712.175964,353.518555 
	C715.316833,373.417786 711.826782,392.356018 702.507019,410.080505 
	C696.851746,420.835724 689.931091,430.788025 678.830139,437.852631 
	C688.468445,442.670898 697.642578,446.933441 701.649170,457.524658 
	C699.238220,457.979309 696.766785,458.054291 693.847656,458.105621 
	C673.939636,441.800446 650.247498,439.268616 626.357056,437.755890 
	C614.388245,436.998016 602.414185,437.895386 590.525696,439.656006 
	C588.434692,439.965668 586.252563,440.647919 583.805908,439.220062 
	C580.743713,437.795563 579.795837,435.054779 578.051270,432.621674 
	C579.353516,429.726624 581.972412,429.548859 584.385742,429.156586 
	C599.154236,426.756012 614.005920,425.621521 629.394470,426.501587 
	C642.658813,428.243042 655.480103,430.043884 667.990479,433.559723 
	C669.889648,434.093445 671.639221,433.548798 673.039124,432.162201 
	C677.986938,427.261444 683.424927,422.783142 686.905579,416.107422 
	C703.164429,391.219940 708.928955,365.328796 697.691528,337.047363 
	C694.801086,329.772827 692.307312,322.340729 688.994751,315.232300 
	C688.286011,313.711487 687.739746,312.137451 687.835938,310.421112 
	C688.071533,306.217041 691.558167,303.863190 695.072449,306.079407 
	C698.470459,308.222351 701.564453,307.754364 705.071655,306.976044 
	C714.412720,304.903015 723.119995,301.142639 731.887512,297.476257 
	C744.033508,292.396973 756.313721,287.644348 768.552734,282.794098 
	C772.143738,281.371033 774.837891,279.226654 776.664368,275.814240 
	C784.200989,261.733551 790.253845,247.204071 790.473511,230.888062 
	C790.591431,222.135071 789.859741,221.401077 781.493713,223.197952 
	C755.687744,228.740585 731.584167,238.630386 708.834534,251.944626 
	C697.752869,258.430237 686.972229,265.377686 676.332642,272.557892 
	C673.736267,274.310089 671.944031,276.286346 671.266479,279.560120 
	C670.290833,284.273621 666.664978,285.497437 662.625854,282.879791 
	C661.643555,282.243164 660.746460,281.471313 659.988159,280.590515 
	C646.603271,265.045105 628.423828,257.010040 610.360840,248.737061 
	C598.781738,243.433701 586.478394,241.350479 573.972168,240.686096 
	C565.163452,240.218124 556.365967,241.579773 547.701294,243.392426 
	C546.071411,243.733398 544.469360,244.232498 542.789734,244.272980 
	C540.293945,244.333130 538.037231,243.789215 537.177673,241.103638 
	C536.296509,238.350632 537.396301,236.288406 539.746338,234.704315 
	C541.505005,233.518768 544.466858,233.745422 545.068787,231.419617 
	C545.730225,228.863937 543.679565,226.727844 542.561340,224.548828 
	C530.694397,201.423553 518.719360,178.355423 504.933746,156.286743 
	C499.890167,148.212723 493.997955,140.763107 488.094788,133.319565 
	C486.459503,131.257584 484.596283,129.754349 482.436829,132.408401 
	C472.987091,144.022491 462.787018,155.163498 460.202179,170.840683 
	C459.065826,177.732910 459.703644,183.805740 463.656616,189.864365 
	C475.040222,207.311661 486.775024,224.513855 498.634430,241.635956 
	C500.523682,244.363556 502.535614,246.461945 506.359741,245.980484 
	C508.961365,245.652954 510.824493,247.229523 511.503174,249.798218 
	C512.193054,252.409256 510.956940,254.338074 508.865387,255.753174 
	C507.059143,256.975220 504.939941,257.565857 502.970490,258.460815 
	C487.392944,265.539642 472.274963,273.321381 462.074432,287.827606 
	C453.037262,300.679382 446.895264,314.785431 444.465149,330.784424 
	C442.580688,342.249634 444.134766,353.096344 447.164215,363.721863 
	C450.203003,374.380066 456.231079,383.288605 464.767273,390.964355 
	C468.089203,394.682068 472.172729,395.187042 476.413116,395.393799 
	C494.026855,396.252594 511.077789,399.698029 527.351379,406.639160 
	C529.802673,407.684723 532.290527,408.687927 534.238770,411.234436 
	C535.159485,415.523346 532.636841,417.253998 529.228271,418.726044 
	C527.444580,418.785156 526.205505,418.287964 524.985352,417.750824 
	C508.618256,410.545624 491.455811,407.384308 473.624542,406.369598 
	C458.308105,405.497986 443.299011,406.165192 428.866699,411.378052 
	C417.242523,415.576599 408.667389,422.993774 407.566101,436.836304 
	C407.053345,443.276001 409.851166,447.950470 413.752747,452.218994 
	C416.175659,454.869843 419.274506,456.926178 420.997742,460.625763 
z"/>
<path fill="#1C204F" opacity="1.000000" stroke="none" 
	d="
M536.639954,619.756531 
	C536.232971,616.670715 535.338135,613.108765 536.515381,610.471924 
	C537.922607,607.320068 541.905273,609.394287 544.714722,608.897583 
	C555.912598,606.917664 566.625244,603.529358 576.914795,598.690918 
	C578.585388,597.905334 580.690674,596.108582 582.383423,597.702148 
	C583.863892,599.095825 582.962524,601.483887 582.656555,603.435608 
	C581.784424,608.999084 580.857971,614.554138 580.002319,620.120056 
	C579.520630,623.253784 580.385437,624.644958 584.085449,625.148254 
	C603.282654,627.759766 622.426636,630.769165 641.571228,633.755005 
	C645.076355,634.301697 646.840393,633.594238 647.100708,629.636353 
	C647.381409,625.368774 648.367798,621.147583 649.196472,615.967590 
	C653.619690,621.088928 655.874756,626.604004 659.166565,631.413757 
	C661.216675,634.409241 662.085938,639.451599 665.257446,640.109253 
	C668.931519,640.871216 669.981567,635.535889 672.454895,633.129456 
	C673.494934,632.117493 674.260071,630.245178 675.850769,630.527039 
	C677.678406,630.850708 677.176819,633.013672 677.534058,634.322693 
	C679.150269,640.245422 680.699280,646.200378 681.887756,652.219666 
	C682.405945,654.844299 683.495972,655.696716 686.060974,656.084534 
	C708.168274,659.426575 730.251099,662.930603 752.645874,666.608887 
	C748.370300,669.515930 743.771973,672.170288 739.219849,674.901550 
	C737.671265,675.830688 736.144104,675.798157 734.435913,675.506226 
	C712.796936,671.807861 691.160156,668.093201 669.492676,664.568298 
	C665.886292,663.981506 663.890564,662.906555 663.753906,658.810791 
	C663.621948,654.854797 662.469055,650.943359 661.989990,646.985046 
	C661.619751,643.925964 660.511719,643.965027 658.147400,645.338989 
	C651.071228,649.451233 651.023193,649.368958 646.727234,642.554932 
	C646.017395,641.429077 645.206482,640.352356 644.623962,639.163879 
	C643.524902,636.921509 642.072632,636.773926 640.367126,638.352478 
	C636.293640,642.122742 631.695801,642.060547 626.478882,641.233948 
	C606.603943,638.084961 586.676208,635.257996 566.739746,632.518250 
	C563.338074,632.050781 562.720276,631.075989 563.695312,627.825989 
	C565.305969,622.457703 566.359314,616.922180 567.897522,610.396606 
	C557.413391,614.684021 547.658630,618.710632 536.639954,619.756531 
z"/>
<path fill="#1C204F" opacity="1.000000" stroke="none" 
	d="
M246.303207,653.148132 
	C242.450089,639.521179 238.907349,626.044312 235.322113,612.578674 
	C234.782593,610.552368 236.017288,609.400146 237.276901,608.348145 
	C239.780792,606.256958 242.447449,602.294189 245.003296,602.957397 
	C247.268677,603.545227 246.730698,608.577087 246.772858,611.498291 
	C246.988693,626.450439 254.457962,637.945190 264.497192,647.707397 
	C277.411896,660.265686 293.669250,663.487183 311.141907,661.442566 
	C326.173279,659.683655 339.552368,653.703674 351.900879,645.143738 
	C353.002441,644.380066 354.082031,642.642090 355.784882,643.659912 
	C357.298431,644.564697 356.848480,646.309631 356.956238,647.770996 
	C357.309937,652.567200 357.918884,657.361755 357.942993,662.159485 
	C357.961273,665.796265 359.755798,666.373352 362.664429,665.948364 
	C372.828766,664.463196 382.969299,662.786255 393.162354,661.536560 
	C399.871552,660.713989 406.456970,658.665527 413.650391,659.512085 
	C403.900360,666.596497 393.075836,670.764160 380.619202,671.267151 
	C369.850342,671.701904 359.127075,673.488342 348.411743,674.891907 
	C345.140503,675.320435 343.998810,674.375549 343.821777,671.083923 
	C343.519196,665.458862 342.774597,659.857544 342.223358,654.323547 
	C340.078369,653.794250 339.315491,655.429626 338.182281,656.216736 
	C320.661194,668.386475 301.259399,673.652832 280.117767,670.972168 
	C266.954224,669.303040 256.450775,661.711609 246.303207,653.148132 
z"/>
<path fill="#1C204F" opacity="1.000000" stroke="none" 
	d="
M417.449097,624.387817 
	C417.089294,620.639221 417.104401,616.983582 416.993652,613.331665 
	C416.893311,610.023193 418.279846,609.713989 420.969360,610.976624 
	C435.538940,617.816528 450.159668,624.547424 464.731140,631.383362 
	C487.417206,642.025940 510.076263,652.726196 532.756104,663.382141 
	C533.493530,663.728699 534.333130,663.857727 535.495850,664.103210 
	C533.244324,668.701050 528.605774,671.169617 524.786194,674.465698 
	C523.135437,675.890137 521.389221,673.881531 519.838623,673.141663 
	C487.018036,657.481018 454.222443,641.768127 421.418121,626.073425 
	C420.221893,625.501099 418.986359,625.010864 417.449097,624.387817 
z"/>
<path fill="#1D2150" opacity="1.000000" stroke="none" 
	d="
M752.531128,653.117554 
	C750.008972,646.881775 750.233704,646.761536 756.610718,645.903931 
	C766.001587,644.641052 775.228271,642.558533 784.178223,639.368042 
	C785.528259,638.886780 786.977356,637.363892 788.293579,638.572937 
	C789.651123,639.819946 788.651917,641.643738 788.454407,643.281738 
	C787.840637,648.372559 787.478943,653.493408 786.992310,658.600037 
	C786.736877,661.280273 787.456665,662.588928 790.541565,663.273621 
	C795.794189,664.439453 801.108582,663.939514 806.380127,664.756042 
	C813.560913,665.868286 820.934143,665.925903 828.230530,666.027588 
	C832.015503,666.080383 833.375549,667.578430 833.053284,671.126770 
	C832.978271,671.952454 833.035278,672.791199 833.047607,673.623718 
	C833.263916,688.206482 831.009705,684.936707 844.959717,689.843811 
	C856.084534,693.756958 867.279419,697.470581 878.419678,701.340576 
	C879.611145,701.754456 881.132568,701.737793 881.928467,703.498901 
	C878.363037,707.679504 874.562378,708.474243 869.203247,706.409912 
	C858.220581,702.179382 846.942322,698.658936 835.640137,695.342529 
	C830.867493,693.942078 827.998108,691.001709 825.707458,687.042236 
	C824.795044,685.464966 823.740723,683.862793 823.308960,682.132690 
	C821.256836,673.910889 815.594910,671.806335 807.844482,671.903015 
	C797.052795,672.037720 786.252991,671.372498 775.456665,671.374268 
	C771.897278,671.374878 770.879089,670.212402 771.133667,666.811279 
	C771.430603,662.843933 771.198364,658.839539 771.289673,654.853333 
	C771.338745,652.712524 771.181274,651.208618 768.328979,652.174805 
	C763.324829,653.869995 758.124146,653.075317 752.531128,653.117554 
z"/>
<path fill="#1C204F" opacity="1.000000" stroke="none" 
	d="
M328.457336,479.479675 
	C329.216522,492.527222 329.703613,505.613953 329.917023,518.705139 
	C329.973328,522.158142 330.790009,523.068481 334.210724,521.906433 
	C337.278473,520.864319 340.936890,518.424988 343.574341,519.915161 
	C346.623962,521.638123 344.631256,526.013184 345.076172,529.199219 
	C346.178314,537.091858 346.110962,537.071045 338.648651,535.378967 
	C336.069672,534.794250 333.445923,534.406860 330.431763,533.938477 
	C329.987701,525.106689 329.882996,524.768372 321.627838,527.323853 
	C316.652344,528.864136 315.588257,527.682556 315.514465,522.743713 
	C315.355988,512.136353 314.697845,501.528534 313.941376,490.942505 
	C313.700134,487.566559 314.746674,485.796326 317.822845,484.550446 
	C321.344238,483.124237 324.671326,481.218140 328.457336,479.479675 
z"/>
<path fill="#1A1E4D" opacity="1.000000" stroke="none" 
	d="
M786.467346,473.820374 
	C788.613586,475.314575 787.996155,477.438568 787.955750,479.347748 
	C787.714417,490.777832 788.348572,502.174988 788.914856,513.582520 
	C789.122009,517.756470 791.815002,517.789795 794.680359,518.016113 
	C797.444702,518.234497 800.019714,518.469604 800.027161,522.319885 
	C800.033264,525.514893 798.990051,526.605469 795.833008,525.445435 
	C788.490479,522.747375 780.928345,521.072815 772.641602,520.955017 
	C772.434875,509.165222 772.819275,497.346741 772.784424,485.529510 
	C772.773743,481.897125 773.590698,479.640228 777.165894,478.311493 
	C780.266724,477.159058 783.140991,475.397034 786.467346,473.820374 
z"/>
<path fill="#1E2351" opacity="1.000000" stroke="none" 
	d="
M878.130676,508.940399 
	C877.916809,509.255951 877.897949,509.471405 877.947876,509.567322 
	C877.290100,510.738312 877.572632,511.972015 877.276855,513.457031 
	C876.702209,514.494629 876.291748,515.214600 875.393494,516.790222 
	C873.848755,509.924042 872.470154,503.796509 871.035034,497.329529 
	C873.350342,495.968628 875.722229,494.947174 878.468018,493.862305 
	C880.877808,493.698090 880.714233,495.005066 880.467285,496.351410 
	C879.980591,499.005035 879.259583,501.627808 879.195190,504.690552 
	C878.960754,505.014801 879.009155,505.006195 878.998657,504.984009 
	C878.080811,506.061096 878.741638,507.435913 878.130676,508.940399 
z"/>
<path fill="#6C76A1" opacity="1.000000" stroke="none" 
	d="
M879.258911,504.784424 
	C877.598572,501.351379 880.100891,497.858307 879.139160,494.012299 
	C880.279114,490.990326 880.786255,493.457031 881.790283,494.458923 
	C881.184204,497.941833 880.370605,501.247955 879.258911,504.784424 
z"/>
<path fill="#C2C1C1" opacity="1.000000" stroke="none" 
	d="
M443.191406,174.891113 
	C445.039520,177.182541 446.683167,179.782333 448.522278,182.702576 
	C448.537262,183.108887 448.356720,183.194763 448.101501,183.571075 
	C446.019470,181.501053 444.012054,179.140610 441.930054,176.442993 
	C442.232635,175.803696 442.609741,175.501587 443.191406,174.891113 
z"/>
<path fill="#FBD524" opacity="1.000000" stroke="none" 
	d="
M443.362701,331.179688 
	C443.069946,324.286621 445.563232,318.246552 447.582672,312.130127 
	C456.914459,283.866302 477.333618,266.748413 504.178192,256.157776 
	C505.571899,255.607925 507.027435,255.170090 508.337769,254.464050 
	C510.354034,253.377640 511.146179,251.645004 510.225189,249.431030 
	C509.394714,247.434586 507.541382,246.403549 505.778778,247.325836 
	C501.962524,249.322708 500.484650,247.015381 498.653076,244.406799 
	C485.442688,225.592514 472.567657,206.557510 460.196442,187.177765 
	C458.094696,183.885391 457.399292,180.672501 457.759094,176.830643 
	C458.810455,165.604172 462.297211,155.374588 469.285950,146.442230 
	C473.493225,141.064804 477.854889,135.803223 481.916718,130.318893 
	C484.189697,127.249878 485.619598,127.739594 487.870544,130.421188 
	C499.272552,144.004837 508.821655,158.821121 517.511719,174.224396 
	C527.496765,191.922958 536.868469,209.946564 546.111267,228.041855 
	C548.037903,231.813889 548.842529,234.408325 543.332214,234.823257 
	C542.681702,234.872238 542.035767,235.129440 541.411621,235.356064 
	C538.931030,236.256744 537.276855,237.838196 538.245911,240.634888 
	C539.118835,243.154129 541.260742,243.521561 543.600098,242.843063 
	C549.381348,241.166260 555.288208,240.312881 561.271912,239.712692 
	C579.425232,237.891861 596.763855,240.679276 613.342896,248.334213 
	C622.567627,252.593491 631.722107,256.957458 640.504272,262.104156 
	C648.958252,267.058563 655.919556,273.677826 662.453308,280.836670 
	C664.118896,282.661560 665.975220,284.163239 668.521484,282.744659 
	C670.623474,281.573578 670.806458,279.558594 669.855713,277.525848 
	C669.059998,275.824524 670.129028,275.028351 671.217407,274.262482 
	C706.337402,249.547638 743.173706,228.551804 786.153748,220.601669 
	C790.672852,219.765747 791.511597,221.282257 791.802368,225.222046 
	C793.310608,245.652832 785.617615,263.361877 775.847412,280.501953 
	C774.945618,282.083954 773.386536,282.623993 771.826538,283.248627 
	C754.363342,290.240417 736.908264,297.252594 719.454590,304.267975 
	C714.183777,306.386566 708.743591,307.921204 703.190002,309.081146 
	C700.180786,309.709656 697.180603,311.132538 694.871399,307.366241 
	C693.933594,305.836700 691.841370,306.059967 690.380371,307.246613 
	C688.313538,308.925415 688.699890,310.954224 689.724609,313.100861 
	C693.961548,321.976501 697.380554,331.181213 700.594482,340.465363 
	C710.084229,367.878052 703.933594,392.825714 688.366211,416.589111 
	C686.627319,416.947571 685.558960,416.095642 684.585144,415.207916 
	C671.872925,403.619965 641.905579,409.032593 633.785828,425.291412 
	C633.267456,426.329315 632.680603,427.348541 631.305786,428.153595 
	C613.433716,427.775665 595.991577,428.404388 578.371216,432.200775 
	C570.165405,421.971100 562.359924,411.633728 554.221191,401.250916 
	C553.419250,401.488525 552.858826,401.479919 552.128113,401.808411 
	C551.890747,401.932343 551.968018,401.916931 551.949219,401.882324 
	C546.780090,406.362976 541.334229,410.406464 534.412231,412.448792 
	C522.207703,404.683594 508.769287,401.646576 495.191742,399.129547 
	C488.338806,397.859131 481.401428,396.905823 474.415100,396.908600 
	C470.159668,396.910278 466.615082,395.727722 463.587433,392.186829 
	C476.136078,380.544556 479.088013,364.934662 471.396088,349.307068 
	C467.306335,340.997925 460.296875,336.396942 451.697540,333.764465 
	C449.019623,332.944702 446.079041,333.046997 443.362701,331.179688 
z"/>
<path fill="#FBCE0A" opacity="1.000000" stroke="none" 
	d="
M821.351624,651.320312 
	C815.652222,650.560547 810.279236,649.440308 804.859680,648.633057 
	C801.632935,648.152466 800.494080,646.904846 800.870789,643.449036 
	C802.273621,630.578857 803.355103,617.673706 804.679810,603.466125 
	C795.563904,615.737976 783.222900,620.767700 770.565674,625.260925 
	C766.155457,626.826538 761.584351,627.701599 756.927856,628.112793 
	C731.523926,630.356567 714.311646,615.791382 714.285095,590.254639 
	C714.264221,570.236816 722.582092,553.880066 741.398315,543.883423 
	C754.914673,538.587952 768.542847,538.984314 781.805420,542.391846 
	C793.784363,545.469666 800.447632,555.542542 806.755676,564.950317 
	C807.131714,562.079956 806.951721,558.661621 808.699585,555.242859 
	C810.334900,541.377625 811.551270,527.770691 813.130249,514.206055 
	C813.574463,510.390686 812.332153,508.606659 808.769043,508.054749 
	C804.678833,507.421143 802.516235,505.345764 803.490356,500.589233 
	C805.020447,498.422943 806.951477,499.080017 808.647034,499.455536 
	C820.661011,502.116364 832.813599,504.072418 844.843811,506.667023 
	C850.197693,507.821747 852.731567,510.578186 853.773071,515.818054 
	C857.761047,535.881104 861.411072,556.010132 865.561523,576.040894 
	C865.831482,577.343567 866.095093,578.647400 866.372803,579.948547 
	C866.948669,582.647522 868.262573,582.740051 870.152832,581.091858 
	C871.403198,580.001587 872.607849,578.832031 874.573486,578.075928 
	C879.888123,558.496887 884.872253,539.141968 889.992859,519.426514 
	C891.920349,517.357056 893.888550,518.240967 895.768860,518.763977 
	C903.303101,520.859619 910.787842,523.129456 918.236023,525.508911 
	C922.864990,526.987671 923.538452,528.481384 922.346802,533.419495 
	C921.015808,538.934814 918.865540,544.174988 917.019104,549.520569 
	C906.917419,578.766113 897.093323,608.106812 887.128052,637.398926 
	C882.467041,651.099731 877.690125,664.759460 872.994446,678.447510 
	C872.404419,680.167358 871.973877,681.986572 870.191406,683.510620 
	C863.145874,681.454834 856.438843,679.032837 849.648682,676.872314 
	C846.443787,675.852600 847.105042,673.421936 847.053528,671.204346 
	C846.362000,641.446716 845.693726,611.688538 845.017944,581.461304 
	C844.257629,579.133667 842.994019,579.710999 841.767761,580.354614 
	C837.844238,582.413696 835.566345,585.520203 834.863342,590.027588 
	C832.001221,608.379761 827.726562,626.456604 823.964966,644.633118 
	C823.499817,646.880798 823.363037,649.274292 821.351624,651.320312 
z"/>
<path fill="#FCCE0A" opacity="1.000000" stroke="none" 
	d="
M235.262787,588.677734 
	C229.184326,594.488342 222.030594,598.197205 215.834320,603.648560 
	C209.384506,607.344604 210.486496,612.360657 212.113815,618.006531 
	C217.282623,635.939331 221.659210,654.089600 226.488541,672.117126 
	C226.961945,673.884277 227.554596,675.663635 226.292755,677.766418 
	C219.043793,680.613281 211.980728,683.040283 205.008255,685.704407 
	C201.533936,687.031921 201.071884,684.400574 200.146622,682.414673 
	C189.054108,658.605774 178.009918,634.774414 166.930359,610.959473 
	C156.836426,589.263000 146.651123,567.608643 136.671112,545.859985 
	C135.104050,542.444946 133.739044,541.432617 130.131348,543.437744 
	C126.420815,545.500061 122.036324,549.546875 118.643562,548.219727 
	C115.371674,546.939880 113.633835,541.590820 111.357239,537.945068 
	C106.689476,530.470276 102.106979,522.942139 97.501648,515.428467 
	C96.484596,513.769043 94.858940,512.088501 97.731133,510.199829 
	C121.349014,497.194031 146.262268,489.380981 172.687210,486.432343 
	C191.016144,484.387115 209.278351,484.051819 226.782471,491.134399 
	C250.199844,500.609741 262.658844,516.427368 258.843140,544.066589 
	C257.763550,551.886658 255.609695,559.291443 252.553391,566.555481 
	C248.824509,575.417908 242.374985,582.013245 235.262787,588.677734 
z"/>
<path fill="#FACD0B" opacity="1.000000" stroke="none" 
	d="
M396.633331,523.846436 
	C406.810577,510.599060 416.613068,497.468048 426.699463,484.158875 
	C427.827881,483.621063 428.669525,483.754700 429.328979,484.296204 
	C439.963593,493.028534 450.559814,501.806274 460.513550,511.765808 
	C452.481750,522.658630 442.941986,531.937988 434.225159,541.945129 
	C429.970673,546.829468 425.557404,551.575439 421.084259,556.693726 
	C420.798981,559.223389 419.136597,560.494629 417.754395,561.879333 
	C415.479462,564.158508 415.529022,565.697937 418.800476,566.841980 
	C429.151459,570.461731 439.191467,574.977722 449.740723,578.000854 
	C455.464722,579.641113 459.934906,582.598083 463.291504,587.474792 
	C467.183044,593.128723 472.174744,597.808777 477.248932,602.347900 
	C486.115204,610.279358 496.770538,614.126831 508.464264,615.401367 
	C514.801697,616.092163 515.573914,616.735962 515.451721,623.095581 
	C515.360962,627.812683 516.701599,632.784912 513.333130,637.352905 
	C486.067657,624.877686 459.125427,612.202271 432.188660,599.515381 
	C424.061066,595.687439 415.948456,591.827759 407.829041,587.982544 
	C401.232910,584.858704 394.833466,589.005920 394.795532,596.582214 
	C394.721344,611.396240 394.648163,626.212769 394.862488,641.024048 
	C394.915955,644.718262 393.975098,646.382629 390.137939,646.725525 
	C384.845520,647.198425 379.577209,648.070984 374.343231,649.019043 
	C371.223511,649.584167 370.205444,648.542236 370.132751,645.461609 
	C370.026855,640.975098 369.601379,636.488220 369.127167,632.021179 
	C368.834320,629.262390 369.358490,626.862915 370.665558,624.387329 
	C376.160492,613.979797 379.460236,602.862427 380.792664,591.173157 
	C382.621429,575.130249 377.019714,561.730469 365.859528,550.509521 
	C363.440552,548.077332 362.331268,545.598999 362.110779,542.243225 
	C361.216187,528.628479 359.989563,515.035095 359.153534,501.417358 
	C358.925964,497.711182 357.676788,497.140198 354.591156,498.557495 
	C353.087463,499.248169 351.453430,499.652283 349.885468,500.206207 
	C344.201416,502.214294 344.202576,502.217560 344.455597,495.605164 
	C345.318390,493.254547 347.081665,492.698181 348.846863,492.163635 
	C359.180817,489.034271 369.567352,486.087189 379.809509,482.644257 
	C385.384552,480.770172 386.984314,482.035278 387.614258,487.897186 
	C388.891327,499.780975 389.809052,511.695862 390.642334,523.617615 
	C390.745544,525.093872 390.740723,526.592224 391.542358,528.279541 
	C393.662323,527.300354 394.353302,524.905090 396.633331,523.846436 
z"/>
<path fill="#FBCE0A" opacity="1.000000" stroke="none" 
	d="
M671.929077,524.320618 
	C674.223450,509.892761 676.388672,495.776062 678.753723,481.314819 
	C685.599792,477.644989 692.788025,478.053864 699.844788,478.312286 
	C703.083252,478.430908 703.542786,481.725159 703.966309,484.359680 
	C705.440308,493.528381 706.286987,502.780914 707.586121,511.974518 
	C709.256409,523.794006 709.696167,535.750061 711.470764,547.559570 
	C711.777588,549.601501 711.361023,551.514587 710.363525,553.793701 
	C709.221680,555.611694 708.207825,556.990356 707.019775,558.640259 
	C693.159058,575.153625 692.949280,594.206360 696.026794,613.640442 
	C697.461548,622.700684 704.209351,629.006531 710.164368,635.537231 
	C712.790710,638.417480 716.611755,640.411133 717.232544,645.106201 
	C710.833069,644.590698 704.612183,643.578918 698.354797,642.907349 
	C695.104858,642.558472 694.084351,641.056763 693.626587,637.912048 
	C690.691528,617.747681 687.526855,597.616638 684.389526,577.482117 
	C684.228455,576.448242 684.728210,574.879883 683.307373,574.523376 
	C682.206970,574.247253 681.847839,575.619080 681.051758,576.630493 
	C674.320007,582.037842 671.346008,589.277649 668.930786,596.880859 
	C668.387756,598.590210 667.630981,600.305725 665.416138,601.032715 
	C658.133545,589.177917 651.209656,577.405457 644.137939,565.323181 
	C639.680847,567.777771 637.195190,571.705872 636.161743,576.716736 
	C634.053162,586.940918 633.252991,597.363647 631.339905,607.614502 
	C631.005859,609.404053 630.722717,611.205444 629.966553,613.303345 
	C629.339905,614.409851 628.639954,614.762634 627.406982,614.932556 
	C618.723816,614.164246 610.450745,613.310669 602.164246,612.615784 
	C599.067871,612.356201 598.064697,611.562622 598.752258,608.007263 
	C606.297180,568.991638 613.608826,529.930908 621.105225,490.498352 
	C622.537231,488.484039 624.413879,488.455933 626.238647,488.435120 
	C633.388855,488.353455 640.541138,488.478546 647.689819,488.382843 
	C652.089478,488.323944 654.296692,490.314453 655.345886,494.533051 
	C658.035461,505.346771 659.536865,516.424988 662.698303,527.125732 
	C663.153748,528.667419 662.779175,531.052368 664.443665,531.506287 
	C666.385315,532.035767 667.273682,529.624756 668.623474,528.498779 
	C669.003235,528.181946 669.304749,527.771484 669.889160,527.137573 
	C670.690247,526.124512 671.194092,525.340332 671.929077,524.320618 
z"/>
<path fill="#FACD0B" opacity="1.000000" stroke="none" 
	d="
M576.345215,516.840454 
	C563.247192,530.979309 550.242188,544.716248 537.000793,558.696472 
	C536.648926,559.420105 536.642517,559.952148 536.415100,560.375916 
	C533.664429,565.501465 533.726013,565.554199 539.485107,565.596252 
	C543.043030,565.622192 546.425415,564.946777 549.426697,563.089844 
	C554.036255,560.237915 558.668945,557.382690 562.731140,553.197388 
	C563.064026,552.615723 563.255920,552.366333 563.751526,552.081543 
	C565.770447,551.249207 567.162415,552.181702 568.510620,553.150818 
	C575.218201,557.972534 580.590637,564.297668 586.916016,569.555725 
	C588.048157,570.496887 588.855225,571.827942 588.317749,573.840454 
	C580.161987,583.104431 569.570557,587.341431 558.393860,590.459167 
	C540.549805,595.436829 522.792725,596.574158 504.918030,590.154297 
	C478.660706,580.723694 471.230408,556.360168 473.543335,533.968201 
	C474.589966,523.835632 481.462097,517.037231 489.497223,510.996521 
	C490.517029,510.519897 491.024567,509.925476 491.778259,509.181091 
	C491.972076,508.965363 492.000000,509.000000 491.984161,508.984650 
	C504.977600,500.370270 519.222778,495.875397 534.869995,496.454712 
	C549.377136,496.991821 562.970886,500.092285 573.256531,511.507812 
	C574.583557,512.980713 576.194641,514.267639 576.345215,516.840454 
z"/>
<path fill="#FACD0B" opacity="1.000000" stroke="none" 
	d="
M348.158630,627.527100 
	C331.312988,644.731995 311.537231,650.114685 288.921783,643.331177 
	C269.154083,637.401794 258.783142,620.536743 261.718292,600.143494 
	C263.973145,584.477173 268.065918,569.686829 282.921539,560.304321 
	C293.909637,552.176147 306.008850,548.739746 319.216461,549.466736 
	C334.927277,550.331543 357.392548,563.057556 359.208801,583.068115 
	C360.645111,598.892395 359.780182,614.398987 348.158630,627.527100 
z"/>
<path fill="#FBD524" opacity="1.000000" stroke="none" 
	d="
M406.283081,438.222748 
	C405.796356,428.738861 409.814331,421.616577 416.899292,416.039368 
	C422.357605,411.742584 428.587555,408.783722 435.310455,407.468719 
	C467.371857,401.197571 498.528259,403.778839 528.716553,417.898743 
	C530.352722,419.894501 529.056396,421.244019 527.950806,422.394836 
	C516.184448,434.641754 505.365082,447.755402 493.535431,459.942078 
	C492.375031,461.137512 491.158478,462.284760 489.213623,463.101471 
	C476.646393,465.420410 464.428680,463.826813 452.253479,463.283356 
	C445.263397,462.971344 438.717346,460.336456 432.433289,456.204712 
	C430.074768,455.244507 429.098083,452.813995 426.351196,452.831757 
	C418.574646,449.350647 411.916870,444.765594 406.283081,438.222748 
z"/>
<path fill="#FAD325" opacity="1.000000" stroke="none" 
	d="
M583.434082,439.415161 
	C611.295227,434.310638 639.025879,434.420807 666.398682,442.124725 
	C676.486877,444.963989 686.482971,448.364777 693.263184,457.747620 
	C684.489685,458.237122 675.579285,458.392334 666.282471,458.724213 
	C661.516235,462.914795 656.291687,465.342285 650.301636,467.044769 
	C636.207275,468.323822 622.432007,467.529053 608.683228,467.964264 
	C606.919983,468.020081 605.000427,467.363281 603.196533,469.101685 
	C601.709412,472.211792 599.023499,472.669159 596.036560,473.394775 
	C584.384216,474.278076 573.301025,473.728363 562.490173,470.359344 
	C559.991638,469.580780 557.207764,469.236694 555.753052,466.178131 
	C565.527832,460.857361 575.121582,455.712067 585.017822,451.235413 
	C589.536133,449.191559 589.425659,447.428162 586.466858,444.285950 
	C585.246338,442.989777 584.441101,441.302521 583.434082,439.415161 
z"/>
<path fill="#B29332" opacity="1.000000" stroke="none" 
	d="
M235.310883,588.955200 
	C235.254562,586.129761 237.797531,585.002258 239.399994,583.191956 
	C255.217178,565.324280 261.174225,544.729675 255.985336,521.350220 
	C254.298798,513.751221 249.873245,507.558380 243.562958,502.619293 
	C229.909607,491.932861 214.317245,487.403046 197.243927,486.918610 
	C165.700363,486.023560 136.054871,493.638092 107.571510,506.631134 
	C104.711342,507.935852 101.727486,508.969421 98.421158,510.084900 
	C101.460732,505.499084 106.554443,503.199677 111.315117,500.655853 
	C144.588074,482.876740 179.866547,475.620270 217.447784,481.062256 
	C224.067078,482.020782 230.452652,483.924072 236.617874,486.493347 
	C257.511719,495.200714 267.926544,511.648926 265.683472,534.816467 
	C263.540894,556.945801 254.274139,575.682861 235.310883,588.955200 
z"/>
<path fill="#B39332" opacity="1.000000" stroke="none" 
	d="
M870.302124,683.875671 
	C877.093811,662.505676 884.309204,641.244690 891.505493,619.977173 
	C901.316467,590.982178 911.057800,561.963440 920.983887,533.007935 
	C922.255432,529.298645 921.753601,527.792419 917.715759,526.780823 
	C908.699280,524.522156 899.827087,521.687622 890.512756,519.076782 
	C892.588257,509.386902 892.576721,509.438904 902.069458,511.544922 
	C911.156982,513.561035 920.239258,515.631104 929.390015,517.318359 
	C933.387268,518.055359 933.965332,519.406799 932.617065,523.179565 
	C916.837524,567.334717 901.222046,611.548523 885.565796,655.747742 
	C882.734009,663.742126 879.729004,671.682190 877.173767,679.764282 
	C876.057739,683.294067 874.251831,684.684692 870.302124,683.875671 
z"/>
<path fill="#B29332" opacity="1.000000" stroke="none" 
	d="
M513.226929,637.781311 
	C514.553589,631.829773 513.787903,625.975403 513.976929,620.172241 
	C514.043640,618.124451 513.261047,617.141113 511.104279,617.066772 
	C488.775085,616.297729 473.388824,603.909180 460.942291,586.799744 
	C458.448700,583.372009 455.287140,581.415405 451.381805,580.067749 
	C439.441071,575.947144 427.589355,571.569031 415.653229,567.434692 
	C412.407959,566.310669 412.660278,564.936218 414.711914,562.912720 
	C416.607086,561.043457 418.457550,559.128906 420.640076,557.118896 
	C434.599304,562.669189 448.232483,568.368408 461.904602,573.972473 
	C464.612946,575.082520 466.646637,576.517761 468.046082,579.306641 
	C473.924744,591.021729 483.291595,598.776917 495.736206,602.873169 
	C503.005981,605.265991 510.400391,607.178040 517.945435,608.398499 
	C521.019714,608.895752 522.030273,610.226562 521.954041,613.317932 
	C521.757568,621.288513 521.721985,629.272095 521.958374,637.240540 
	C522.080383,641.355347 521.132874,642.552490 517.413757,640.088440 
	C516.174866,639.267700 514.773193,638.692627 513.226929,637.781311 
z"/>
<path fill="#B39332" opacity="1.000000" stroke="none" 
	d="
M874.645386,577.603271 
	C873.787048,581.195496 870.650635,582.742920 868.322083,584.934570 
	C866.011108,587.109741 865.555786,584.327454 865.281433,582.984375 
	C862.792908,570.803528 860.426514,558.597717 858.045959,546.394958 
	C855.921448,535.505066 853.833252,524.608032 851.709045,513.718140 
	C851.161621,510.911713 849.959412,509.397217 846.610596,508.784088 
	C832.451233,506.191864 818.388672,503.071014 803.928467,500.183167 
	C802.629700,490.747314 802.631531,490.739014 811.959839,492.768066 
	C824.941528,495.591858 837.898193,498.537506 850.914429,501.191437 
	C854.534241,501.929504 856.071533,503.704773 856.930664,507.234833 
	C862.626282,530.638123 868.542419,553.987732 874.645386,577.603271 
z"/>
<path fill="#1C204C" opacity="1.000000" stroke="none" 
	d="
M489.509277,462.205475 
	C502.835083,447.539215 515.878540,433.115570 528.986511,418.357483 
	C531.043030,416.664001 532.824402,415.103119 534.015869,412.595703 
	C539.792419,408.819214 545.500854,405.358765 551.569824,401.873016 
	C551.276855,405.991577 547.602112,408.042786 545.234192,410.844635 
	C534.739929,423.262115 523.804504,435.307220 513.010742,447.471008 
	C507.282806,453.925964 501.576233,460.401733 495.732056,466.750275 
	C494.106598,468.515991 494.055023,469.811401 495.866211,471.276337 
	C497.153717,472.317688 498.407684,473.401367 499.711029,474.422180 
	C502.193451,476.366394 503.000153,477.950592 499.472809,479.880463 
	C492.755585,483.555573 486.525513,487.982483 481.107330,493.442596 
	C479.364166,495.199310 477.830536,495.316101 475.954224,493.657867 
	C472.105865,490.256775 468.166473,486.958679 464.103333,483.322388 
	C467.919952,480.171631 472.453705,481.858856 476.727356,481.528595 
	C481.167358,481.185394 481.179718,481.345276 478.692719,476.868591 
	C478.656433,469.237579 484.353668,466.155609 489.509277,462.205475 
z"/>
<path fill="#B39332" opacity="1.000000" stroke="none" 
	d="
M717.396973,645.663330 
	C712.770813,639.323242 706.825562,634.683655 702.135132,628.848145 
	C695.996582,621.210938 693.275696,612.723694 692.915710,603.125916 
	C692.577209,594.099670 693.822754,585.232605 695.277832,576.404541 
	C696.464050,569.208130 701.118347,563.921631 706.512695,558.963745 
	C705.087646,565.976013 701.893677,572.624817 700.884460,579.911987 
	C698.070068,600.234497 703.568726,617.354492 720.197266,630.172241 
	C723.876709,633.008423 727.726746,635.623230 731.497131,638.341431 
	C732.963013,639.398193 734.464050,640.282532 735.037048,642.297058 
	C736.439148,647.226074 736.279541,647.533691 731.107300,647.091125 
	C726.644226,646.709351 722.185547,646.275940 717.396973,645.663330 
z"/>
<path fill="#B39332" opacity="1.000000" stroke="none" 
	d="
M348.215942,627.772461 
	C347.750244,625.238281 349.758026,623.681396 350.899628,621.716797 
	C359.320618,607.225525 360.808472,591.468872 355.711609,576.110962 
	C350.038208,559.015808 327.453430,548.384094 309.134460,551.274475 
	C300.049194,552.708008 292.129425,556.602356 283.587646,560.158569 
	C300.518250,540.692200 326.875610,541.306152 347.814972,553.655945 
	C361.871796,561.946533 367.788818,574.790955 366.684875,590.565735 
	C365.663513,605.160889 359.392609,617.670288 348.215942,627.772461 
z"/>
<path fill="#B19233" opacity="1.000000" stroke="none" 
	d="
M671.901367,525.729126 
	C670.527588,530.115967 666.700012,532.200256 664.105652,535.429382 
	C662.305725,534.611328 662.362549,533.054016 662.050720,531.668213 
	C659.250916,519.223389 656.374146,506.795441 653.668457,494.330261 
	C652.970215,491.113251 651.738098,489.638458 648.064575,489.792053 
	C639.431519,490.152893 630.776062,489.980225 621.678223,490.068878 
	C621.163757,478.211395 620.145691,480.540924 630.897583,480.361267 
	C638.879333,480.227905 646.865173,480.358917 654.848938,480.321198 
	C657.147034,480.310333 659.066162,480.488831 659.789978,483.292480 
	C663.195374,496.482452 666.711548,509.643799 670.158203,523.208374 
	C670.340271,524.511230 671.220398,524.829163 671.901367,525.729126 
z"/>
<path fill="#B39331" opacity="1.000000" stroke="none" 
	d="
M226.461136,678.081665 
	C222.894028,665.424866 219.770233,652.748108 216.525269,640.102417 
	C214.305511,631.451965 211.893661,622.850952 209.610855,614.216370 
	C207.664963,606.856201 207.791290,606.659851 215.371399,603.937012 
	C217.913803,607.564758 218.461929,611.708435 219.664703,615.621399 
	C225.087143,633.262329 230.436691,650.925720 235.818878,668.578979 
	C237.793716,675.056335 237.802429,675.056396 231.186234,676.905518 
	C229.745377,677.308289 228.297470,677.685791 226.461136,678.081665 
z"/>
<path fill="#B39332" opacity="1.000000" stroke="none" 
	d="
M710.533875,554.082764 
	C708.493835,536.408386 706.781555,518.581543 704.235901,500.845795 
	C703.364929,494.777466 702.638306,488.683807 702.045105,482.582336 
	C701.792908,479.988800 700.935425,479.288544 698.236145,479.601776 
	C692.138733,480.309235 685.986877,480.547424 679.405396,480.973419 
	C679.817871,472.956604 679.817871,472.956635 687.697083,472.956665 
	C692.352112,472.956665 697.029968,473.241211 701.655212,472.869843 
	C705.630859,472.550629 707.148926,473.968475 707.781860,477.852875 
	C710.692383,495.714752 713.867615,513.533508 716.945801,531.368103 
	C717.002258,531.695435 716.969849,532.051575 717.085632,532.353333 
	C720.452209,541.129578 718.748291,548.429199 710.533875,554.082764 
z"/>
<path fill="#B29332" opacity="1.000000" stroke="none" 
	d="
M576.565674,517.129761 
	C566.152588,503.485901 551.928162,498.610382 535.547363,498.025238 
	C522.782471,497.569244 510.890076,500.515442 499.537476,506.143127 
	C497.324432,507.240143 495.290131,508.794891 492.346008,509.029541 
	C501.416290,498.426086 513.054321,491.794189 527.168579,490.205933 
	C545.726746,488.117676 562.922913,491.999268 578.192017,503.140381 
	C584.932983,508.058929 584.950928,508.377777 579.404358,514.613037 
	C578.634583,515.478394 577.724426,516.218933 576.565674,517.129761 
z"/>
<path fill="#B29332" opacity="1.000000" stroke="none" 
	d="
M396.960999,523.254761 
	C395.723633,527.183411 393.219910,529.707397 390.628876,532.646545 
	C388.269379,525.857300 389.051086,519.168579 388.185089,512.691833 
	C387.003784,503.856934 386.640808,494.906372 386.106201,485.994659 
	C385.929840,483.054504 384.631836,482.700531 382.230530,483.453644 
	C369.902740,487.319702 357.564545,491.152588 344.894135,495.104492 
	C343.062317,490.130829 345.000214,487.910492 350.186462,486.650574 
	C363.236633,483.480316 376.185638,479.847260 389.049042,475.980011 
	C393.469299,474.651093 394.450165,476.030792 394.636322,480.034790 
	C395.298950,494.287506 396.140289,508.531921 396.960999,523.254761 
z"/>
<path fill="#B29333" opacity="1.000000" stroke="none" 
	d="
M821.378723,651.695190 
	C825.377747,630.013611 829.710876,608.478210 834.043457,586.942627 
	C834.614746,584.103210 841.084106,577.430542 843.716614,577.207031 
	C846.526917,576.968445 845.935913,578.860779 845.276855,580.758911 
	C841.542053,589.501282 841.085571,598.683655 839.217651,607.544006 
	C836.484741,620.507202 834.325500,633.591614 831.944031,646.628418 
	C830.748352,653.174011 830.771057,653.174500 824.182312,652.134521 
	C823.364075,652.005310 822.536133,651.937500 821.378723,651.695190 
z"/>
<path fill="#E8C118" opacity="1.000000" stroke="none" 
	d="
M561.587646,447.857544 
	C548.382751,456.017090 534.327209,462.369598 520.683289,469.514771 
	C517.573792,471.143188 515.910828,468.750610 514.354126,467.130310 
	C512.592407,465.296600 515.086914,464.272858 516.051636,463.238831 
	C525.102661,453.537476 534.240723,443.917328 543.634399,434.097046 
	C544.751282,433.594391 545.593079,433.687531 546.263977,434.213165 
	C551.573364,438.373230 557.254822,442.111237 561.587646,447.857544 
z"/>
<path fill="#B39332" opacity="1.000000" stroke="none" 
	d="
M808.706421,554.783508 
	C809.339478,559.754211 808.098572,564.359131 807.637085,570.279602 
	C802.736694,560.576965 796.816467,553.217651 789.010864,547.441040 
	C785.874573,545.119934 782.432800,543.562012 778.597107,542.976013 
	C766.532532,541.132812 754.512451,541.272400 742.141968,543.865234 
	C748.063843,537.954651 755.837341,534.834778 764.117920,534.376404 
	C782.214539,533.374573 798.526123,537.216736 808.706421,554.783508 
z"/>
<path fill="#E0AB3D" opacity="1.000000" stroke="none" 
	d="
M489.346252,461.963501 
	C486.589447,466.715790 481.649353,470.027496 478.817413,475.478943 
	C477.835815,477.205536 476.369232,477.660492 474.887451,477.646332 
	C468.848389,477.588776 462.701416,479.013641 456.415222,476.187195 
	C456.004059,475.915192 456.000702,475.985077 456.035583,475.982422 
	C455.905579,475.836670 455.740723,475.693604 455.260681,475.461578 
	C446.939209,469.669403 439.857574,462.854980 432.209442,456.257263 
	C437.571381,457.641693 442.959747,459.981079 448.579712,460.892365 
	C461.927948,463.056793 475.429138,462.691956 489.346252,461.963501 
z"/>
<path fill="#B29332" opacity="1.000000" stroke="none" 
	d="
M460.895020,512.039246 
	C451.996033,506.431946 444.939514,498.889923 436.961029,492.454926 
	C433.737335,489.854858 430.689087,487.037292 427.272156,484.149719 
	C435.915039,472.485413 433.234894,473.810852 442.981232,482.437592 
	C449.818451,488.489380 456.510498,494.705597 463.246643,500.871002 
	C467.951752,505.177429 467.940582,505.198822 463.366852,509.916748 
	C462.675812,510.629547 461.920807,511.280334 460.895020,512.039246 
z"/>
<path fill="#E0AB3E" opacity="1.000000" stroke="none" 
	d="
M555.470154,465.820862 
	C563.600281,470.125183 572.251465,471.195770 580.914124,471.941559 
	C585.671204,472.351105 590.489868,472.045044 595.761230,472.118347 
	C592.695129,476.284149 593.080566,482.074982 589.782043,486.677551 
	C586.435364,488.361633 583.591492,487.203247 580.358215,486.167725 
	C570.861877,479.821381 560.701782,476.407471 549.692505,474.186890 
	C547.919800,473.386658 546.671143,472.584320 546.862976,470.395508 
	C549.720032,468.669647 552.424927,467.290863 555.470154,465.820862 
z"/>
<path fill="#B29333" opacity="1.000000" stroke="none" 
	d="
M628.819702,614.314209 
	C631.117004,600.166382 632.903687,586.260498 635.580750,572.528137 
	C636.283813,568.921936 639.304871,565.396729 643.861572,564.703430 
	C640.934570,569.880127 641.945862,575.530518 641.141846,580.797546 
	C639.647095,590.589844 639.100098,600.524780 637.676331,610.330383 
	C636.530090,618.224976 638.199219,617.765991 629.427490,615.380859 
	C628.915283,615.006653 628.778625,614.813782 628.819702,614.314209 
z"/>
<path fill="#B39332" opacity="1.000000" stroke="none" 
	d="
M588.492798,574.060303 
	C588.067749,573.704468 588.118408,573.045654 587.817932,572.771118 
	C580.198608,565.809814 573.573181,557.712280 564.261597,552.162598 
	C564.300720,551.425537 564.540894,550.781738 564.980042,550.332458 
	C570.460571,544.726196 570.490906,544.705566 576.634521,549.737793 
	C582.170410,554.272217 587.540161,559.017517 593.201294,563.387146 
	C595.762207,565.363831 595.823547,566.688293 593.478455,568.753723 
	C591.744263,570.281128 590.350403,572.194885 588.492798,574.060303 
z"/>
<path fill="#B29232" opacity="1.000000" stroke="none" 
	d="
M562.033569,448.250977 
	C555.962585,443.557159 550.240234,438.901306 544.216553,434.082886 
	C544.063110,433.627289 544.141907,433.257263 544.369446,433.052887 
	C547.430603,430.303009 549.296570,424.646729 552.909180,424.677979 
	C556.545044,424.709442 558.334167,430.299286 561.038879,433.358154 
	C563.344666,435.965881 565.503845,438.704498 567.694641,441.412109 
	C571.016907,445.518127 570.977417,445.626892 565.725586,447.344696 
	C564.625854,447.704376 563.497437,447.976471 562.033569,448.250977 
z"/>
<path fill="#1C1F4C" opacity="1.000000" stroke="none" 
	d="
M589.697205,486.405548 
	C590.372498,483.673218 590.865295,481.265900 591.085205,478.833923 
	C591.364624,475.742798 592.740479,473.632050 596.004150,472.442719 
	C598.230103,471.293121 600.218567,470.411224 602.576477,469.461060 
	C603.118286,479.406403 599.936951,488.967316 598.967773,498.827576 
	C598.761780,500.923096 597.690125,500.942017 596.353455,499.722046 
	C593.909363,497.491333 591.513794,495.207489 588.999878,492.638184 
	C587.630493,490.334503 587.834717,488.467712 589.697205,486.405548 
z"/>
<path fill="#F1F2F8" opacity="1.000000" stroke="none" 
	d="
M458.200165,555.934875 
	C458.504639,558.029785 458.709473,559.502747 456.118530,558.296509 
	C452.198273,556.471497 448.220825,554.761536 444.217255,553.126282 
	C441.990997,552.216919 442.399384,551.170532 443.779358,549.892822 
	C448.630585,545.401245 453.484863,540.912964 458.289459,536.468201 
	C457.663971,542.467957 457.056244,549.015381 458.200165,555.934875 
z"/>
<path fill="#DDAA3C" opacity="1.000000" stroke="none" 
	d="
M405.943939,438.364288 
	C412.601410,442.744568 419.152222,447.527588 425.848022,452.609650 
	C425.062012,455.771667 423.182220,458.091583 421.338684,460.781921 
	C414.006287,454.942474 406.736725,449.039764 405.943939,438.364288 
z"/>
<path fill="#B09234" opacity="1.000000" stroke="none" 
	d="
M665.116089,601.296448 
	C668.310120,597.377502 669.196533,592.642029 670.571655,588.333435 
	C672.280945,582.977905 675.457520,579.479980 680.518738,576.944763 
	C678.426636,587.693848 673.260864,597.477661 669.953613,608.320923 
	C667.052368,606.506409 666.745728,603.622620 665.116089,601.296448 
z"/>
<path fill="#242022" opacity="1.000000" stroke="none" 
	d="
M456.109680,476.238678 
	C463.288086,475.887146 470.572144,475.859100 478.309998,475.828522 
	C479.179169,476.088501 479.675079,476.276917 479.996155,476.626099 
	C481.508759,478.270905 483.981323,480.040039 483.144226,482.198242 
	C482.447662,483.994080 479.581940,482.911713 477.694366,482.967194 
	C473.429810,483.092529 469.158844,482.999756 464.416260,483.011169 
	C461.069519,481.226746 458.346527,479.248108 456.109680,476.238678 
z"/>
<path fill="#B39332" opacity="1.000000" stroke="none" 
	d="
M562.610596,552.960144 
	C559.137634,561.861816 542.470825,569.571350 533.458984,566.608154 
	C531.416138,565.936462 530.520752,565.045349 532.381714,563.179565 
	C533.672363,561.885559 534.909851,560.538513 536.467773,559.077515 
	C542.842896,562.687134 548.665527,559.964111 554.323059,557.907715 
	C557.187012,556.866638 559.629089,554.665039 562.610596,552.960144 
z"/>
<path fill="#F1F2F6" opacity="1.000000" stroke="none" 
	d="
M408.827087,460.680359 
	C411.386566,462.239502 413.859924,464.170105 416.669189,466.248718 
	C416.320618,472.101013 411.961975,475.734558 408.740967,480.276154 
	C408.740967,473.868042 408.740967,467.459900 408.827087,460.680359 
z"/>
<path fill="#191E50" opacity="1.000000" stroke="none" 
	d="
M594.758789,527.097168 
	C594.110901,530.717773 593.403015,533.942566 593.026672,537.205566 
	C592.659912,540.385925 591.465942,540.393494 589.239868,538.686890 
	C583.982910,534.656616 583.884888,533.570190 588.637329,528.783936 
	C589.919006,527.493164 591.187500,526.188354 592.499634,524.929199 
	C593.065735,524.385925 593.827087,523.326172 594.475952,523.972900 
	C594.995056,524.490173 594.749939,525.774231 594.758789,527.097168 
z"/>
<path fill="#232752" opacity="1.000000" stroke="none" 
	d="
M650.272217,467.327820 
	C655.018860,464.342590 660.098328,461.608124 665.536865,458.887268 
	C665.916565,459.884979 665.840027,460.882538 665.974243,461.850891 
	C666.629150,466.577393 664.671387,468.516998 659.901184,467.986633 
	C656.825317,467.644623 653.705261,467.700867 650.272217,467.327820 
z"/>
<path fill="#2F2A29" opacity="1.000000" stroke="none" 
	d="
M589.564209,486.236908 
	C589.657471,487.894806 589.313965,489.698151 588.936096,491.916016 
	C585.387878,491.350616 583.257996,488.362701 580.185791,486.183533 
	C583.035889,486.066772 586.081665,486.224548 589.564209,486.236908 
z"/>
<path fill="#2A2A37" opacity="1.000000" stroke="none" 
	d="
M546.658203,470.085480 
	C547.696960,471.173706 548.378784,472.299011 549.212280,473.727753 
	C547.118408,474.031189 544.872803,474.031189 542.129211,474.031189 
	C542.884033,471.067596 544.752869,470.780884 546.658203,470.085480 
z"/>
<path fill="#B19B39" opacity="1.000000" stroke="none" 
	d="
M672.211304,525.838745 
	C671.029114,525.872742 670.230103,525.493591 670.128296,523.963013 
	C670.548218,523.757874 670.968201,523.914368 671.723145,524.040161 
	C672.723633,524.452209 672.804199,525.009644 672.211304,525.838745 
z"/>
<path fill="#B29332" opacity="1.000000" stroke="none" 
	d="
M491.655182,508.970703 
	C492.057312,510.064240 491.486023,510.647858 490.126160,510.856079 
	C489.924042,509.895966 490.559631,509.376068 491.655182,508.970703 
z"/>
<path fill="#A8953E" opacity="1.000000" stroke="none" 
	d="
M628.715698,614.056641 
	C628.989197,614.273499 628.996399,614.539185 629.035522,615.001953 
	C628.508423,615.243408 627.964905,615.287415 627.211792,615.143066 
	C627.479431,614.671753 627.956665,614.388855 628.715698,614.056641 
z"/>
<path fill="#6C76A1" opacity="1.000000" stroke="none" 
	d="
M877.358154,513.529663 
	C877.242859,512.593872 877.373047,511.413055 877.750488,509.947723 
	C877.866455,510.870392 877.735046,512.077576 877.358154,513.529663 
z"/>
<path fill="#6C76A1" opacity="1.000000" stroke="none" 
	d="
M878.203186,508.990936 
	C878.065125,507.972076 878.213501,506.688202 878.675049,505.183075 
	C878.821960,506.216492 878.655762,507.471222 878.203186,508.990936 
z"/>
<path fill="#1C204C" opacity="1.000000" stroke="none" 
	d="
M552.171692,401.947449 
	C552.089600,401.208588 552.655212,401.031677 553.597290,401.094055 
	C553.409485,401.457825 552.931091,401.710205 552.171692,401.947449 
z"/>
<path fill="#242022" opacity="1.000000" stroke="none" 
	d="
M455.105225,475.523254 
	C455.273224,475.414062 455.600952,475.455444 455.999573,475.738281 
	C455.766724,475.970642 455.498230,475.868683 455.105225,475.523254 
z"/>
<path fill="#FBD424" opacity="1.000000" stroke="none" 
	d="
M360.228912,150.999939 
	C360.228943,133.869492 360.228943,117.239037 360.228943,100.578224 
	C362.432526,100.121452 363.008087,101.856621 363.952850,102.794510 
	C409.807983,148.314148 450.298431,198.530731 491.394440,248.224075 
	C494.434570,251.900223 492.840851,252.830872 489.626556,254.393768 
	C453.280334,272.066559 436.186951,302.304993 434.479187,341.589325 
	C433.641968,360.847931 440.212341,378.274109 453.154938,392.971802 
	C453.951599,393.876495 455.654755,394.617035 454.911804,396.156311 
	C454.335693,397.349854 452.806854,396.850403 451.701630,396.922974 
	C445.699310,397.317169 439.753387,398.132751 433.995972,399.853973 
	C431.054443,400.733337 429.138245,399.972839 426.999542,397.859131 
	C415.503113,386.497040 403.920746,375.218781 392.190674,364.098724 
	C389.535004,361.581177 389.202972,359.851715 391.365417,356.719055 
	C401.587402,341.910645 411.539856,326.915985 421.563843,311.971222 
	C425.277863,306.433960 425.184479,305.816406 420.017212,301.819427 
	C401.300873,287.341980 382.612946,272.826935 363.789001,258.490570 
	C361.089081,256.434296 360.150360,254.303711 360.161407,250.990570 
	C360.272064,217.827316 360.228790,184.663574 360.228912,150.999939 
z"/>
<path fill="#EC3E23" opacity="1.000000" stroke="none" 
	d="
M442.982361,331.325348 
	C470.250702,332.424072 485.783813,360.240234 472.890533,384.283386 
	C470.953583,387.895416 468.509888,390.975281 463.767578,391.852722 
	C445.698486,375.522888 440.459991,354.936310 442.982361,331.325348 
z"/>
<path fill="#EB3E23" opacity="1.000000" stroke="none" 
	d="
M631.312439,428.492767 
	C635.743347,414.668518 646.896484,409.921539 659.821655,408.040344 
	C670.223755,406.526398 680.060364,407.688202 687.824890,416.579041 
	C684.687683,424.580353 677.557861,429.103455 672.226807,435.177887 
	C670.983398,436.594696 669.402222,435.500275 668.012390,435.138214 
	C656.066040,432.025940 643.996643,429.618042 631.312439,428.492767 
z"/>
<path fill="#817F80" opacity="1.000000" stroke="none" 
	d="
M448.458527,183.161346 
	C449.236603,183.648697 449.392639,184.154083 448.169067,184.055374 
	C448.084320,183.674240 448.141815,183.486954 448.458527,183.161346 
z"/>
<path fill="#817F80" opacity="1.000000" stroke="none" 
	d="
M449.401276,185.246368 
	C449.624451,185.208466 449.707428,185.312057 449.790405,185.415649 
	C449.613953,185.406387 449.437531,185.397125 449.401276,185.246368 
z"/>
<path fill="#0B0D0A" opacity="1.000000" stroke="none" 
	d="
M658.972900,388.947815 
	C643.025085,403.701263 618.676575,398.023132 613.222107,378.599518 
	C610.080017,367.410492 615.195190,355.652954 625.739441,349.827789 
	C636.794861,343.720245 650.715454,345.924957 659.090271,355.109711 
	C667.158936,363.958740 667.958679,376.467865 661.071411,386.338562 
	C660.502014,387.154602 659.836182,387.903351 658.972900,388.947815 
z"/>
<path fill="#0A0D0A" opacity="1.000000" stroke="none" 
	d="
M526.225525,308.794678 
	C533.426086,317.735138 534.431396,327.804108 529.204834,336.364380 
	C523.565369,345.600891 511.265167,350.727020 500.099548,348.494110 
	C485.250000,345.524475 476.213623,333.196442 478.996216,319.703552 
	C481.683685,306.671906 496.583588,297.676056 510.765167,300.529236 
	C516.617676,301.706696 521.793274,304.178497 526.225525,308.794678 
z"/>
<path fill="#322B20" opacity="1.000000" stroke="none" 
	d="
M519.716675,373.069824 
	C518.354858,370.971924 516.464661,368.949402 519.245422,367.280365 
	C521.661926,365.829926 522.710999,368.285614 523.880493,369.798370 
	C529.718262,377.349274 536.945984,381.924103 546.936157,381.222961 
	C554.897644,380.664215 561.793457,383.528961 567.090271,389.342407 
	C575.307861,398.361511 584.829895,403.153503 597.260925,400.441681 
	C598.992920,400.063873 600.383301,400.879517 600.557495,402.621643 
	C600.764404,404.689758 599.090759,405.508453 597.379639,405.805664 
	C587.964050,407.441010 579.168274,405.960724 571.247986,400.365692 
	C570.570129,399.886902 569.841919,399.413300 569.324890,398.783173 
	C561.985168,389.839264 552.863525,385.806549 541.002686,386.085815 
	C532.000977,386.297760 525.408203,380.214996 519.716675,373.069824 
z"/>
<path fill="#4A4021" opacity="1.000000" stroke="none" 
	d="
M559.314331,368.825012 
	C561.572205,370.338928 563.626892,371.394623 565.990601,371.746460 
	C566.988953,371.895081 568.192688,372.100220 567.924744,373.423553 
	C567.695251,374.556610 566.520691,374.752014 565.489136,374.628937 
	C562.239868,374.241119 559.510376,372.667816 557.015564,370.669220 
	C556.373901,370.155243 555.882812,369.365936 556.731506,368.557556 
	C557.494568,367.830780 558.253967,368.241089 559.314331,368.825012 
z"/>
<path fill="#2A3F8D" opacity="1.000000" stroke="none" 
	d="
M740.294983,561.203369 
	C741.915222,551.892029 748.561035,548.294189 756.109314,546.002319 
	C761.031189,544.507874 766.168640,544.676147 771.583923,545.915527 
	C769.704041,547.877563 767.523315,548.200439 765.612610,549.013672 
	C757.893921,552.298706 755.783813,561.241516 761.220581,567.819031 
	C766.394226,574.078186 778.546814,575.619751 784.001770,570.357788 
	C785.262695,565.752869 786.724426,561.597778 788.636169,557.221313 
	C790.679749,553.745605 791.245605,556.380310 791.889038,557.656250 
	C796.370544,566.543579 794.982178,575.694214 788.145081,582.885254 
	C785.612122,585.549316 782.805664,587.863037 779.332764,589.888123 
	C768.112732,595.077087 757.450439,593.912476 747.904968,587.180054 
	C739.092163,580.964355 738.043945,571.572876 740.294983,561.203369 
z"/>
<path fill="#B39331" opacity="1.000000" stroke="none" 
	d="
M740.138794,560.881287 
	C740.559082,563.098816 740.746460,565.409607 740.765625,567.721863 
	C740.875916,581.028992 748.506226,589.535156 761.848572,590.993347 
	C767.335022,591.593018 772.819275,591.449890 778.624939,590.033325 
	C772.501465,598.939758 758.519592,601.369873 746.496704,595.731384 
	C737.167358,591.356079 732.424744,584.068237 733.045898,574.499390 
	C733.394470,569.129578 736.907349,565.156616 740.138794,560.881287 
z"/>
<path fill="#B39432" opacity="1.000000" stroke="none" 
	d="
M788.510864,556.994385 
	C788.964905,561.663818 787.418579,565.881531 784.458008,569.887695 
	C781.575500,563.824646 782.358032,561.311157 788.510864,556.994385 
z"/>
<path fill="#293F8D" opacity="1.000000" stroke="none" 
	d="
M189.319427,531.182251 
	C198.123764,525.088989 219.109436,522.411377 228.820084,529.754822 
	C236.734283,535.739807 240.135468,547.027100 236.390625,557.609741 
	C233.821823,564.868896 229.408768,570.889038 223.282364,575.454590 
	C218.630676,578.921082 213.578461,581.850159 208.352386,585.079712 
	C206.528870,584.411682 205.937515,583.016174 205.459747,581.603821 
	C200.199661,566.054138 194.480286,550.660706 189.584305,534.987244 
	C189.237381,533.876648 188.953308,532.748291 189.319427,531.182251 
z"/>
<path fill="#B39332" opacity="1.000000" stroke="none" 
	d="
M189.113251,530.905396 
	C195.598328,548.654541 201.773544,566.511414 207.974548,584.754639 
	C207.788437,587.524353 206.138504,588.778442 204.098480,588.902039 
	C201.563889,589.055725 201.755859,586.449890 201.221573,584.910889 
	C196.124649,570.229309 191.273773,555.460876 186.042740,540.828064 
	C184.519012,536.565674 185.024673,533.484985 189.113251,530.905396 
z"/>
<path fill="#293F8C" opacity="1.000000" stroke="none" 
	d="
M503.429688,525.204163 
	C508.561615,513.621826 525.409302,507.238647 538.719849,511.545624 
	C542.863892,512.886597 546.526428,515.135315 550.215942,517.390991 
	C552.908447,519.037109 552.443665,520.290710 550.525574,522.269348 
	C538.168335,535.016907 525.910034,547.860229 513.313416,560.795593 
	C508.338867,559.775818 506.675354,555.687317 504.859558,552.062805 
	C500.588165,543.536743 499.801239,534.645569 503.429688,525.204163 
z"/>
<path fill="#B39332" opacity="1.000000" stroke="none" 
	d="
M503.325928,524.915588 
	C501.237518,538.052185 502.646881,550.299683 512.817993,560.649902 
	C509.066528,563.831238 505.830322,563.633179 503.267578,559.010376 
	C502.070831,556.851624 500.199524,555.065430 499.013733,552.902161 
	C492.350464,540.746460 493.495605,534.746704 503.325928,524.915588 
z"/>
<path fill="#2B408C" opacity="1.000000" stroke="none" 
	d="
M337.750153,568.325195 
	C337.978577,567.187805 338.057281,565.754639 338.348328,565.710144 
	C339.692108,565.504639 340.095551,566.784241 340.448822,567.745178 
	C346.610992,584.506409 347.324158,593.832520 328.342712,603.881470 
	C324.781738,606.541504 320.989227,605.678101 317.429260,605.486877 
	C305.387299,604.839966 294.613647,596.376404 291.471527,585.436096 
	C289.969574,580.206604 290.394501,575.250549 293.643921,570.274536 
	C299.062927,558.473083 308.742737,556.407166 320.696198,557.299316 
	C317.148132,559.460205 312.671814,558.844116 311.320312,563.047791 
	C310.238495,566.412781 309.603668,569.794495 310.398041,573.337708 
	C312.647369,583.370544 320.371246,587.032898 331.546326,582.994751 
	C336.568085,579.229797 337.588806,574.136536 337.750153,568.325195 
z"/>
<path fill="#B49431" opacity="1.000000" stroke="none" 
	d="
M293.553955,569.956787 
	C293.702301,574.183411 291.546509,578.120239 292.370728,582.589905 
	C294.500000,594.136536 305.116486,603.212280 318.205383,604.145691 
	C321.152893,604.355835 324.141327,603.991821 327.574707,603.971436 
	C325.788300,609.111694 320.769196,609.391052 316.438080,610.236816 
	C307.069794,612.066162 297.987274,612.070374 290.627594,604.276306 
	C281.060913,594.145020 282.119171,578.743042 293.553955,569.956787 
z"/>
<path fill="#AD9036" opacity="1.000000" stroke="none" 
	d="
M337.428040,568.019409 
	C340.085022,574.530762 338.283020,579.719849 332.245422,582.885742 
	C333.278809,578.690735 335.931122,574.917358 335.194305,570.179871 
	C335.056824,569.296082 336.062408,568.453857 337.428040,568.019409 
z"/>
<path fill="#F7F7F7" opacity="1.000000" stroke="none" 
	d="
M640.110718,353.394775 
	C641.002380,353.413330 641.512695,353.375824 641.998291,353.468231 
	C648.112061,354.631866 651.785156,357.959564 652.284851,362.760864 
	C652.767761,367.400970 650.275940,371.320740 645.576660,373.313293 
	C640.510437,375.461365 634.270081,374.079315 630.976685,370.079773 
	C625.527832,363.462372 629.729553,355.444183 640.110718,353.394775 
z"/>
<path fill="#F5F5F5" opacity="1.000000" stroke="none" 
	d="
M522.607910,311.521912 
	C524.902283,315.404694 525.087646,319.082367 523.104309,322.721100 
	C520.357544,327.760620 514.268066,329.496185 509.418488,326.739624 
	C504.147461,323.743500 502.536102,316.721039 505.944885,311.601379 
	C509.127625,306.821198 515.158997,305.587860 519.885559,308.826324 
	C520.824951,309.469971 521.556885,310.416443 522.607910,311.521912 
z"/>
<path fill="#191E4D" opacity="1.000000" stroke="none" 
	d="
M221.684555,539.202148 
	C229.727539,547.739746 228.173187,558.425232 218.491669,563.991211 
	C216.745331,564.995239 216.059494,564.296753 215.498749,562.877991 
	C212.504013,555.300476 209.532181,547.713928 206.561844,540.126831 
	C205.392456,537.139893 206.980484,536.214294 209.622025,536.001465 
	C213.891800,535.657654 217.943970,536.109680 221.684555,539.202148 
z"/>
<path fill="#181D4D" opacity="1.000000" stroke="none" 
	d="
M526.768494,533.768433 
	C523.344482,537.203613 520.174805,540.393127 516.993713,543.571228 
	C515.136230,545.427002 513.806641,545.071594 513.095276,542.559570 
	C511.392090,536.545471 511.288300,530.938171 515.644836,525.645752 
	C520.314514,519.973145 526.246094,519.309448 532.780518,520.182251 
	C534.236206,520.376648 535.892883,520.950134 536.472961,522.446228 
	C537.163879,524.228210 535.367493,525.040527 534.399048,526.061829 
	C531.993286,528.599060 529.485107,531.038940 526.768494,533.768433 
z"/>
</svg>